<svg width="31" height="31" viewBox="0 0 31 31" fill="none" xmlns="http://www.w3.org/2000/svg">
<g clip-path="url(#clip0_312_1184)">
<path d="M15.4999 2.58331C8.357 2.58331 2.58325 8.35706 2.58325 15.5C2.58325 22.6429 8.357 28.4166 15.4999 28.4166C22.6428 28.4166 28.4166 22.6429 28.4166 15.5C28.4166 8.35706 22.6428 2.58331 15.4999 2.58331ZM21.0541 21.0541C20.5503 21.5579 19.7366 21.5579 19.2328 21.0541L15.4999 17.3212L11.767 21.0541C11.2633 21.5579 10.4495 21.5579 9.94575 21.0541C9.442 20.5504 9.442 19.7366 9.94575 19.2329L13.6787 15.5L9.94575 11.7671C9.442 11.2633 9.442 10.4496 9.94575 9.94581C10.4495 9.44206 11.2633 9.44206 11.767 9.94581L15.4999 13.6787L19.2328 9.94581C19.7366 9.44206 20.5503 9.44206 21.0541 9.94581C21.5578 10.4496 21.5578 11.2633 21.0541 11.7671L17.3212 15.5L21.0541 19.2329C21.5449 19.7237 21.5449 20.5504 21.0541 21.0541Z" fill="#344E41"/>
</g>
<defs>
<clipPath id="clip0_312_1184">
<rect width="31" height="31" fill="white"/>
</clipPath>
</defs>
</svg>
