<svg width="14" height="17" viewBox="0 0 14 17" fill="none" xmlns="http://www.w3.org/2000/svg">
<path d="M1.58132 14.7703C1.58132 15.7766 2.40465 16.6 3.41095 16.6H10.7295C11.7358 16.6 12.5591 15.7766 12.5591 14.7703V5.62219C12.5591 4.61589 11.7358 3.79256 10.7295 3.79256H3.41095C2.40465 3.79256 1.58132 4.61589 1.58132 5.62219V14.7703ZM4.32576 5.62219H9.81465C10.3178 5.62219 10.7295 6.03386 10.7295 6.537V13.8555C10.7295 14.3587 10.3178 14.7703 9.81465 14.7703H4.32576C3.82261 14.7703 3.41095 14.3587 3.41095 13.8555V6.537C3.41095 6.03386 3.82261 5.62219 4.32576 5.62219ZM10.2721 1.04812L9.62254 0.398597C9.45787 0.23393 9.22002 0.133301 8.98217 0.133301H5.15824C4.92039 0.133301 4.68254 0.23393 4.51787 0.398597L3.86836 1.04812H1.58132C1.07817 1.04812 0.666504 1.45978 0.666504 1.96293C0.666504 2.46608 1.07817 2.87775 1.58132 2.87775H12.5591C13.0622 2.87775 13.4739 2.46608 13.4739 1.96293C13.4739 1.45978 13.0622 1.04812 12.5591 1.04812H10.2721Z" fill="white"/>
</svg>
