<svg width="85" height="85" viewBox="0 0 85 85" fill="none" xmlns="http://www.w3.org/2000/svg">
<path d="M35.496 21.2499H32.2917C29.0984 21.2499 26.0974 22.4931 23.8406 24.7512L8.35851 40.2325C8.10949 40.4815 7.96948 40.8194 7.96948 41.1716C7.96948 41.5239 8.10949 41.8617 8.35851 42.1107L14.9991 48.7514C15.5179 49.2702 16.3585 49.2702 16.8771 48.7514L29.2198 36.4087V50.2438L18.6684 80.5789C18.5271 80.9848 18.5907 81.4341 18.8397 81.785C19.0901 82.1353 19.4933 82.3434 19.9227 82.3434H31.8758C32.4414 82.3434 32.9447 81.9853 33.1301 81.4516L42.575 54.3004L53.217 81.499C53.4167 82.0081 53.9071 82.3435 54.4544 82.3435H66.4075C66.8458 82.3435 67.2569 82.1268 67.5048 81.7644C67.7525 81.4011 67.8045 80.9401 67.6448 80.5317L55.7824 50.2179V36.4089L68.1244 48.7509C68.6432 49.2697 69.4838 49.2697 70.0023 48.7509L76.6429 42.1103C76.8922 41.8616 77.0323 41.5237 77.0323 41.1715C77.0323 40.8192 76.8922 40.4814 76.6432 40.2324L61.1612 24.751C58.9045 22.493 55.9032 21.2498 52.7101 21.2498H49.5057C51.7198 19.301 53.1265 16.4552 53.1265 13.281C53.1265 7.42259 48.3599 2.65601 42.5015 2.65601C36.6431 2.65601 31.8765 7.42259 31.8765 13.281C31.8765 16.4552 33.2832 19.301 35.4973 21.2498L35.496 21.2499ZM52.7085 23.9061C55.1924 23.9061 57.5255 24.8732 59.2817 26.6291L73.8252 41.1718L69.0625 45.9345L55.3923 32.2637C55.0124 31.8838 54.4416 31.7715 53.9449 31.9757C53.448 32.1815 53.1251 32.6657 53.1251 33.2028V50.4684C53.1251 50.6339 53.1564 50.7979 53.2159 50.9521L64.4607 79.687H55.36L43.7377 49.9845C43.5379 49.4745 43.0462 49.14 42.5003 49.14H42.4743C41.9192 49.1511 41.4289 49.5063 41.246 50.0318L30.9313 79.6869H21.7902L31.8018 50.9045C31.851 50.7639 31.8757 50.6167 31.8757 50.4681V33.2025C31.8757 32.6654 31.5528 32.1812 31.0559 31.9757C30.5592 31.7706 29.9884 31.8835 29.6084 32.2637L15.9383 45.9338L11.1756 41.1711L25.7191 26.6283C27.4753 24.8724 29.8086 23.9054 32.2925 23.9054L52.7085 23.9061ZM42.5 5.3124C46.8942 5.3124 50.4688 8.887 50.4688 13.2811C50.4688 17.6753 46.8942 21.2499 42.5 21.2499C38.1059 21.2499 34.5313 17.6753 34.5313 13.2811C34.5313 8.887 38.1059 5.3124 42.5 5.3124Z" fill="#A3B18A"/>
<path d="M41.5856 43.4639C41.8424 43.7071 42.1705 43.8283 42.5001 43.8283C42.8296 43.8283 43.1578 43.7071 43.4145 43.4639L49.1097 38.0587C49.9862 37.2278 50.4688 36.1177 50.4688 34.9329C50.4688 33.748 49.9863 32.6377 49.1108 31.8071C47.3507 30.1391 44.4856 30.1367 42.7255 31.8071C42.7242 31.8071 42.7242 31.8071 42.7242 31.8076L42.5 32.0204L42.2743 31.8071C40.5167 30.1378 37.6505 30.1367 35.8904 31.8071C35.0138 32.6377 34.5312 33.748 34.5312 34.9329C34.5312 36.1177 35.0138 37.228 35.8893 38.0587L41.5856 43.4639ZM37.718 33.7342C38.094 33.377 38.5882 33.1985 39.0824 33.1985C39.5766 33.1985 40.0707 33.377 40.4468 33.7337L41.5856 34.8147C42.0992 35.3012 42.9007 35.3012 43.4143 34.8147L44.5531 33.7337C45.3054 33.0204 46.5284 33.0209 47.2832 33.7342C47.6244 34.0582 47.8126 34.4838 47.8126 34.9326C47.8126 35.3814 47.6244 35.8067 47.2821 36.1309L42.5 40.6692L37.7169 36.1309C37.3757 35.8067 37.1876 35.3814 37.1876 34.9326C37.1876 34.4838 37.3757 34.0582 37.718 33.7342Z" fill="#A3B18A"/>
<path d="M70.0316 15.5755C69.3819 14.9114 68.7049 14.2681 68.0211 13.6638L66.2625 15.6546C66.898 16.2163 67.5283 16.8153 68.1354 17.434L70.0316 15.5755Z" fill="#A3B18A"/>
<path d="M71.471 21.3745L73.6162 19.8064C73.0703 19.0608 72.4931 18.3278 71.899 17.6274L69.873 19.3446C70.4256 19.997 70.964 20.6799 71.471 21.3744V21.3745Z" fill="#A3B18A"/>
<path d="M61.2468 8.859C60.4399 8.40827 59.6088 7.983 58.7759 7.59448L57.6528 10.0017C58.427 10.3628 59.2015 10.7585 59.9524 11.1782L61.2468 8.859Z" fill="#A3B18A"/>
<path d="M74.2121 25.7499L76.5596 24.5062C76.1263 23.6897 75.6608 22.8812 75.1731 22.1028L72.9216 23.5125C73.3757 24.2369 73.8101 24.9897 74.2121 25.7499L74.2121 25.7499Z" fill="#A3B18A"/>
<path d="M78.3064 40.5697L80.9602 40.4283C80.9095 39.5022 80.8279 38.5731 80.7136 37.6658L78.0781 37.9964C78.1844 38.8409 78.2607 39.7064 78.3064 40.5697Z" fill="#A3B18A"/>
<path d="M76.2876 30.4738L78.7908 29.5815C78.4809 28.7138 78.1359 27.8461 77.7634 27.0024L75.333 28.0752C75.6794 28.8593 76.0009 29.6668 76.2876 30.4738Z" fill="#A3B18A"/>
<path d="M77.18 59.264L74.791 58.1057C74.4189 58.8721 74.0116 59.64 73.5811 60.3879L75.882 61.7146C76.3446 60.9119 76.7818 60.0876 77.18 59.2639L77.18 59.264Z" fill="#A3B18A"/>
<path d="M79.2271 54.1144L76.6954 53.3142C76.4348 54.1365 76.1442 54.9541 75.8291 55.7436L78.2961 56.728C78.6345 55.8775 78.9482 54.9981 79.2271 54.1144Z" fill="#A3B18A"/>
<path d="M74.4105 64.0651L72.2108 62.5762C71.7335 63.2817 71.2211 63.9829 70.6868 64.6605L72.7722 66.3052C73.3469 65.5767 73.8981 64.8232 74.4105 64.0651Z" fill="#A3B18A"/>
<path d="M67.2083 68.4781L69.0396 70.4027C69.7051 69.7699 70.3575 69.1031 70.9801 68.4208L69.0164 66.6309C68.4378 67.2667 67.8294 67.8879 67.2083 68.4781Z" fill="#A3B18A"/>
<path d="M77.6688 35.4469L80.2734 34.9281C80.093 34.0189 79.8766 33.1103 79.6325 32.2271L77.0723 32.9365C77.2992 33.7572 77.5 34.6014 77.6688 35.4469Z" fill="#A3B18A"/>
<path d="M80.5163 48.7218L77.8938 48.2952C77.7563 49.1416 77.5864 49.993 77.3894 50.8263L79.9729 51.4398C80.1854 50.5449 80.3682 49.6305 80.5163 48.7218Z" fill="#A3B18A"/>
<path d="M81.0123 43.2004L78.356 43.155C78.3416 44.0123 78.2951 44.8794 78.2185 45.7322L80.8645 45.9696C80.9458 45.0531 80.9965 44.1221 81.0123 43.2004Z" fill="#A3B18A"/>
<path d="M65.8815 11.9028C65.1552 11.3463 64.3937 10.8063 63.6195 10.2971L62.1616 12.5176C62.8827 12.991 63.591 13.4943 64.2681 14.0118L65.8815 11.9028Z" fill="#A3B18A"/>
<path d="M6.78074 45.6889C6.70548 44.8406 6.66011 43.9724 6.646 43.1079L3.98975 43.1533C4.00662 44.0808 4.05449 45.0118 4.13501 45.9225L6.78074 45.6889Z" fill="#A3B18A"/>
<path d="M6.92602 37.9517L4.29053 37.6172C4.17625 38.5239 4.09214 39.453 4.0415 40.3791L6.69251 40.5244C6.74066 39.6611 6.81838 38.7956 6.92602 37.9517Z" fill="#A3B18A"/>
<path d="M7.94252 32.8914L5.38225 32.1819C5.13848 33.0626 4.92183 33.9699 4.73755 34.8791L7.34209 35.4042C7.51337 34.5564 7.71424 33.7115 7.94252 32.8914Z" fill="#A3B18A"/>
<path d="M27.3884 9.98308L26.2678 7.57446C25.43 7.96349 24.5986 8.38763 23.7959 8.83508L25.0878 11.1554C25.8346 10.7398 26.609 10.3455 27.3884 9.98308Z" fill="#A3B18A"/>
<path d="M12.1042 23.4734L9.85275 22.0623C9.36384 22.8436 8.89565 23.651 8.46484 24.4632L10.8098 25.7097C11.2118 24.9537 11.6476 24.2017 12.1041 23.4735L12.1042 23.4734Z" fill="#A3B18A"/>
<path d="M9.68094 28.0321L7.25051 26.9602C6.87449 27.8144 6.52808 28.6812 6.22314 29.5373L8.72363 30.4297C9.00807 29.6344 9.32959 28.8279 9.68102 28.0321H9.68094Z" fill="#A3B18A"/>
<path d="M18.7716 15.6243L17.013 13.6335C16.3177 14.2478 15.642 14.8897 15.0015 15.5427L16.8977 17.4027C17.4942 16.7948 18.1245 16.1963 18.7717 15.6244L18.7716 15.6243Z" fill="#A3B18A"/>
<path d="M17.7713 68.4602C17.141 67.8584 16.534 67.2364 15.9659 66.6113L13.9998 68.3974C14.6107 69.0692 15.2617 69.7366 15.9374 70.3813L17.7713 68.4602Z" fill="#A3B18A"/>
<path d="M15.1542 19.3104L13.1308 17.5894C12.5329 18.2916 11.9543 19.0246 11.4109 19.7669L13.5536 21.3363C14.0597 20.6457 14.5978 19.9642 15.1543 19.3103L15.1542 19.3104Z" fill="#A3B18A"/>
<path d="M9.15529 55.7124C8.83875 54.9141 8.54712 54.0951 8.29006 53.2781L5.75586 54.0769C6.03338 54.9543 6.34604 55.8344 6.68583 56.6916L9.15529 55.7124Z" fill="#A3B18A"/>
<path d="M22.8778 12.4935L21.4227 10.2705C20.6573 10.771 19.8961 11.3106 19.1582 11.8723L20.7691 13.9851C21.455 13.461 22.1644 12.9591 22.8778 12.4934V12.4935Z" fill="#A3B18A"/>
<path d="M4.47729 48.6759C4.62256 49.5817 4.80545 50.4982 5.01933 51.3996L7.60284 50.7873C7.40445 49.9481 7.23456 49.0959 7.09953 48.2542L4.47729 48.6759Z" fill="#A3B18A"/>
<path d="M11.4035 60.3613C10.9782 59.622 10.572 58.8536 10.196 58.0767L7.8042 59.2346C8.209 60.0681 8.6445 60.8928 9.10243 61.6867L11.4035 60.3613Z" fill="#A3B18A"/>
<path d="M14.2941 64.6367C13.7676 63.9682 13.2552 63.267 12.7715 62.5518L10.5718 64.0395C11.0906 64.8079 11.6417 65.5622 12.2087 66.2813L14.2941 64.6367Z" fill="#A3B18A"/>
<path d="M43.8841 80.9908C44.8088 80.9571 45.7402 80.8895 46.6533 80.7897L46.3627 78.1489C45.5144 78.2422 44.6481 78.3047 43.7881 78.3357L43.8841 80.9908Z" fill="#A3B18A"/>
<path d="M41.1075 80.9908L41.206 78.336C40.3513 78.3047 39.4836 78.2419 38.6289 78.1487L38.3408 80.7894C39.2592 80.889 40.1905 80.9571 41.1075 80.9908Z" fill="#A3B18A"/>
</svg>
