<svg width="85" height="85" viewBox="0 0 85 85" fill="none" xmlns="http://www.w3.org/2000/svg">
<g clip-path="url(#clip0_143_1694)">
<path d="M77.2651 22.6632C71.7923 10.8021 61.0152 7.8413 56.6348 7.1188C54.7077 6.80226 52.7579 6.64261 50.8049 6.64095H50.7673C47.1379 6.61633 43.526 7.15007 40.0594 8.22337C39.3455 8.4497 38.6289 8.70979 37.9292 8.99644V8.99617C34.2215 10.5556 30.9114 12.9277 28.2434 15.9378H31.9411C33.9914 14.0439 36.3596 12.5262 38.9368 11.454C39.569 11.1947 40.217 10.9598 40.8623 10.7548L40.862 10.7551C44.0697 9.76427 47.4102 9.27254 50.7674 9.29719H50.8022C52.6115 9.29885 54.4178 9.44689 56.203 9.74018C60.1647 10.3932 69.9128 13.0688 74.8527 23.7765C76.2945 26.816 76.696 30.2453 75.9952 33.5359C75.5718 35.8231 76.8479 38.0189 77.973 39.9561C78.113 40.1973 78.2519 40.4358 78.3855 40.6713C79.0202 41.7432 79.7402 42.7625 80.5387 43.7188C81.2501 44.5212 81.85 45.4163 82.322 46.3794C82.3447 46.4353 82.3447 46.4865 82.3591 46.4663C82.1668 46.6072 81.9471 46.7059 81.7144 46.7563C81.5976 46.7939 81.4836 46.8316 81.374 46.8711L81.138 46.9555L81.1378 46.9552C80.3802 47.1747 79.6774 47.551 79.075 48.0598C77.6099 49.4294 78.4843 51.3865 79.0626 52.6823C79.2778 53.1263 79.4552 53.5879 79.593 54.0616C79.4037 54.0746 79.1727 54.079 79.0211 54.0823C78.2079 54.0987 76.9791 54.1238 76.7229 55.3197C76.6302 56.0613 76.9334 56.7972 77.5219 57.2582C76.9348 57.3772 76.4395 57.769 76.1892 58.3133C75.8358 59.1641 75.9681 60.21 76.136 61.5343C76.387 62.8148 76.395 64.131 76.1601 65.4143C75.9944 65.9265 75.6654 66.3706 75.2235 66.6783C74.597 67.1069 73.8361 67.2936 73.0822 67.2043C68.0691 66.6744 63.2392 65.0259 58.9481 62.3802L58.727 62.2465C56.0215 60.6616 55.122 59.3349 55.1746 58.6805V58.6802C55.2122 58.2073 54.9947 57.75 54.604 57.4807C54.2131 57.2115 53.7084 57.1711 53.2798 57.375C52.8512 57.5787 52.564 57.9959 52.5261 58.4688C52.3872 60.2158 53.5617 61.9615 56.008 63.6631C55.5871 68.298 55.8729 72.1065 58.089 75.7041H34.7869C35.8223 74.291 36.5141 72.656 36.8076 70.9292C37.1609 68.7652 37.1413 66.5569 36.7495 64.3995C36.094 64.8411 35.3223 65.0777 34.532 65.0791C34.4056 65.0791 34.2811 65.0674 34.1569 65.0555C34.4665 66.8369 34.4798 68.6573 34.1961 70.4428C33.8622 72.6795 32.5957 74.6701 30.7112 75.9199C30.3894 76.1302 30.1747 76.4691 30.1219 76.8496C30.069 77.23 30.1836 77.6146 30.4359 77.9044C30.688 78.194 31.0532 78.3603 31.4376 78.3603H60.7144C61.0556 78.3603 61.3837 78.2292 61.6306 77.9937C61.8776 77.7583 62.0246 77.437 62.0412 77.0961C62.0575 76.7552 61.9421 76.4213 61.7188 76.1631C58.901 72.9064 58.2942 69.5704 58.5521 65.2215L58.5523 65.2218C62.9379 67.7546 67.8096 69.332 72.8479 69.85C74.2475 69.9991 75.6533 69.6311 76.8005 68.8157C77.7141 68.1591 78.3865 67.2203 78.7136 66.1437C79.0614 64.5161 79.0807 62.8355 78.7708 61.2003C78.7111 60.7288 78.6367 60.1361 78.6212 59.7321C79.2443 59.6101 80.8007 59.2847 80.8441 57.7731V57.7729C80.8496 57.3584 80.7282 56.9519 80.4963 56.6083C80.7904 56.5419 81.0671 56.4141 81.3084 56.2334C82.9796 54.9385 82.082 52.9286 81.488 51.5985C81.2215 51.0866 81.0306 50.5387 80.9205 49.9721C81.2581 49.743 81.6307 49.5695 82.0237 49.4591L82.2799 49.3683C82.3604 49.3384 82.4459 49.3113 82.5328 49.2834C83.3598 49.09 84.0892 48.6035 84.5858 47.9146C85.0653 47.1476 85.1364 46.1941 84.7764 45.3646C84.2164 44.1679 83.489 43.0567 82.6163 42.0645C81.9058 41.2161 81.2638 40.3128 80.6969 39.3628C80.5588 39.1182 80.4146 38.8711 80.2702 38.6221C79.3325 37.0079 78.3629 35.3394 78.6075 34.0191H78.6073C79.4011 30.1885 78.9302 26.2033 77.2648 22.6638L77.2651 22.6632Z" fill="#A3B18A"/>
<path d="M18.5974 34.6444L15.8545 35.3054L33.424 61.8275C33.4306 61.8375 33.4403 61.8447 33.447 61.8544H33.4472C33.4951 61.9225 33.5496 61.9861 33.6097 62.0439C33.6276 62.0614 33.6448 62.0788 33.6636 62.0951H33.6633C33.7344 62.1574 33.8116 62.2122 33.8941 62.2581C33.9077 62.2656 33.922 62.27 33.9356 62.2769C34.0092 62.3137 34.0861 62.3436 34.1655 62.3663C34.1904 62.3735 34.2148 62.3801 34.24 62.3859C34.3349 62.4089 34.432 62.4208 34.5297 62.4222H34.531L34.5377 62.4213C34.6271 62.4211 34.7164 62.4119 34.8041 62.3937C34.8141 62.3917 34.8227 62.387 34.8324 62.3845C34.8647 62.3771 34.8946 62.3646 34.9262 62.3546V62.3549C34.9915 62.335 35.0551 62.3104 35.1168 62.2808C35.1481 62.2653 35.1777 62.2481 35.2078 62.2301H35.2076C35.2659 62.1955 35.3213 62.1563 35.3733 62.1131C35.3982 62.0923 35.4234 62.073 35.4469 62.0506C35.5122 61.9883 35.5709 61.92 35.622 61.8461C35.6267 61.8392 35.6334 61.8345 35.6381 61.8276L55.2958 32.1533C55.6264 31.6868 55.7966 31.1257 55.7808 30.5538L55.7814 30.5471C55.7814 30.5175 55.7744 30.4896 55.7725 30.4603C55.7432 29.9553 55.5689 29.4694 55.2709 29.0607L48.9722 19.2071C48.7279 18.8253 48.3059 18.5942 47.8527 18.5942H21.2102C20.7569 18.5942 20.335 18.8253 20.0906 19.2071L15.8797 25.7949L18.6117 26.4534L21.3847 22.1152L26.2517 29.219H22.3504C22.6544 30.0785 22.6544 31.0159 22.3504 31.8753H27.0298L31.8027 54.5717L18.5974 34.6444ZM52.2191 29.2187H43.6405L48.0781 22.7408L52.2191 29.2187ZM42.3945 31.875H52.2949L37.3335 54.4588L42.3945 31.875ZM41.4781 27.6745L37.077 21.25H45.8795L41.4781 27.6745ZM39.3161 29.2187H30.1424L34.7292 22.5231L39.3161 29.2187ZM28.1966 27.3585L24.0122 21.25H32.3812L28.1966 27.3585ZM39.673 31.875L34.5507 54.7329L29.7437 31.875H39.673Z" fill="#A3B18A"/>
<path d="M1.0169 31.8384L6.92015 33.2612L8.68213 39.5388C8.78727 39.9131 9.05123 40.2227 9.40427 40.386C9.75733 40.549 10.1641 40.549 10.5174 40.3863C10.8705 40.2233 11.1344 39.914 11.2398 39.5393L13.0024 33.2611L18.9051 31.8384C19.2944 31.7446 19.6203 31.4801 19.7927 31.1187C19.9651 30.7574 19.9651 30.3374 19.7927 29.976C19.6203 29.6146 19.2944 29.3501 18.9051 29.2563L13.0024 27.8335L11.2398 21.5554C11.1344 21.1807 10.8705 20.8714 10.5174 20.7084C10.1641 20.5457 9.75738 20.5457 9.40427 20.7087C9.05121 20.8719 8.78725 21.1816 8.68213 21.5559L6.92015 27.8332L1.0169 29.2563C0.62759 29.3501 0.301623 29.6146 0.129285 29.976C-0.043095 30.3373 -0.043095 30.7573 0.129285 31.1187C0.301665 31.4801 0.627612 31.7446 1.0169 31.8384ZM8.29927 30.2333V30.2336C8.52893 30.178 8.73949 30.0623 8.90966 29.8985C9.07982 29.7344 9.20295 29.5283 9.26687 29.3009L9.96082 26.8283L10.6553 29.3017C10.7195 29.5289 10.8426 29.735 11.0128 29.8988C11.1827 30.0626 11.3935 30.178 11.6229 30.2336L12.925 30.5474L11.6229 30.8611C11.3935 30.9168 11.183 31.0321 11.0128 31.1959C10.8426 31.3598 10.7195 31.5659 10.6553 31.7931L9.96082 34.2664L9.26687 31.7939C9.20295 31.5665 9.07983 31.3603 8.90966 31.1962C8.73949 31.0324 8.52893 30.9168 8.29927 30.8612L6.99658 30.5474L8.29927 30.2333Z" fill="#A3B18A"/>
</g>
<defs>
<clipPath id="clip0_143_1694">
<rect width="85" height="85" fill="white"/>
</clipPath>
</defs>
</svg>
