<svg width="85" height="85" viewBox="0 0 85 85" fill="none" xmlns="http://www.w3.org/2000/svg">
<path d="M69.4449 39.015H69.36V31.535C69.36 16.66 57.375 4.67505 42.5 4.67505C35.36 4.67505 28.5599 7.48019 23.545 12.58C18.5299 17.5951 15.64 24.48 15.64 31.535V39.015C11.4749 39.015 8.07495 42.415 8.07495 46.58C8.07495 50.745 11.475 54.1451 15.64 54.1451C16.065 68.9351 28.39 80.6651 43.18 80.2401C50.0649 80.0702 56.61 77.2651 61.455 72.4201C66.2998 67.5752 69.1049 61.03 69.275 54.1451H69.3599C73.525 54.1451 76.9249 50.745 76.9249 46.58C76.9252 42.4147 73.6101 39.015 69.4449 39.015ZM10.8799 46.58C10.8799 44.03 13.0049 41.905 15.5549 41.905V51.255C13.0049 51.255 10.8799 49.215 10.8799 46.58ZM66.3849 53.465C66.3849 66.725 55.6749 77.435 42.4149 77.435C29.1549 77.435 18.5299 66.725 18.5299 53.465V31.535C18.5299 18.275 29.2399 7.56498 42.4999 7.56498C55.7599 7.56498 66.4699 18.275 66.4699 31.535V53.465H66.3849ZM69.4448 51.255H69.3599V41.905H69.4448C71.9948 41.905 74.1198 44.03 74.1198 46.58C74.1198 49.215 71.9948 51.255 69.4448 51.255Z" fill="#A3B18A"/>
<path d="M46.8349 61.115C46.0698 61.115 45.39 61.7951 45.39 62.5598C45.39 64.1749 44.0301 65.5348 42.415 65.5348C40.8 65.5348 39.44 64.1749 39.44 62.5598C39.44 61.7948 38.7599 61.115 37.9952 61.115C37.2301 61.115 36.55 61.7948 36.55 62.5598C36.55 65.79 39.185 68.4249 42.4151 68.4249C45.6453 68.4249 48.2802 65.79 48.2802 62.5598C48.2802 61.7948 47.685 61.115 46.8351 61.115H46.8349Z" fill="#A3B18A"/>
<path d="M40.8848 46.92V57.375C40.8848 58.14 41.5649 58.8198 42.3296 58.8198C43.0947 58.8198 43.7745 58.1397 43.7745 57.375L43.7748 46.92C43.7748 46.1549 43.0947 45.4751 42.3299 45.4751C41.5648 45.4751 40.8848 46.1552 40.8848 46.92Z" fill="#A3B18A"/>
<path d="M33.7448 29.2402L39.6099 34.51C41.3099 35.9549 43.7749 35.9549 45.39 34.51L51.1702 29.2402C52.615 27.8802 53.465 26.0953 53.5503 24.2251C53.6352 22.3552 52.8702 20.57 51.5952 19.21C50.3202 17.935 48.9602 17.2549 47.515 17.2549C45.5599 17.2549 43.7749 18.02 42.4999 19.21C41.2249 18.02 39.44 17.2549 37.4849 17.2549C36.2099 17.2549 34.9349 17.7648 33.8297 18.785C32.2996 20.145 31.4496 22.0152 31.3647 23.97C31.28 25.9251 32.13 27.795 33.7448 29.2402ZM35.6149 20.9102C36.0399 20.5701 36.6348 20.1451 37.3149 20.1451C38.93 20.1451 40.4598 20.9951 41.055 22.1852C41.3951 22.8653 42.2451 23.205 43.0102 22.8653C43.2653 22.6954 43.5201 22.5252 43.6903 22.1852C44.2852 20.9102 45.8153 20.1451 47.4303 20.1451C48.2803 20.1451 48.9605 20.74 49.4704 21.2502C50.2355 22.1002 50.6605 23.1201 50.6605 24.1403C50.6605 25.2455 50.1505 26.3502 49.2156 27.1153L43.435 32.3002C42.925 32.7252 42.0751 32.7252 41.5651 32.3002L35.7001 27.1153C34.7651 26.2653 34.1699 25.1602 34.1699 23.9704C34.1699 22.7804 34.6801 21.6753 35.6151 20.9102L35.6149 20.9102Z" fill="#A3B18A"/>
<path d="M38.4199 43.2652C38.4199 42.5001 37.7398 41.8203 36.975 41.8203C36.2099 41.8203 35.5301 42.5004 35.5301 43.2652C35.5301 44.8802 34.1702 46.2402 32.5551 46.2402C30.9401 46.2402 29.5801 44.8802 29.5801 43.2652C29.5801 42.5001 28.9 41.8203 28.1353 41.8203C27.3702 41.8203 26.6904 42.5004 26.6904 43.2652C26.6904 46.4953 29.3254 49.1302 32.5555 49.1302C35.7851 49.1302 38.42 46.495 38.42 43.2652H38.4199Z" fill="#A3B18A"/>
<path d="M56.7799 41.8201C56.0149 41.8201 55.3351 42.5002 55.3351 43.2649C55.3351 44.88 53.9752 46.2399 52.3601 46.2399C50.745 46.2399 49.3851 44.88 49.3851 43.2649C49.3851 42.4999 48.705 41.8201 47.9402 41.8201C47.1751 41.8201 46.4954 42.5002 46.4954 43.2649C46.4954 46.4951 49.1303 49.13 52.3604 49.13C55.5906 49.13 58.2255 46.4951 58.2255 43.2649C58.2249 42.5001 57.5448 41.8201 56.7801 41.8201H56.7799Z" fill="#A3B18A"/>
</svg>
