<svg width="85" height="85" viewBox="0 0 85 85" fill="none" xmlns="http://www.w3.org/2000/svg">
<path d="M73.8863 78.2778H68.9382L59.4791 65.5115L62.8667 60.9389L73.7219 75.5886L75.8004 74.0483L62.8669 56.5928L57.8696 63.3381L43.7915 44.3384V23.8442H41.2044V26.0719C39.8968 28.0151 37.7275 29.2029 35.3861 29.2582C34.7226 29.2582 33.9932 29.2314 33.221 29.2032C28.4849 29.0314 21.3224 28.7704 17.7326 34.729L17.3552 35.356L22.915 45.8401L23.6604 47.2321L24.8831 46.2304C26.9965 44.7133 29.6027 44.0456 32.1853 44.3594C35.9893 44.7515 38.9948 44.5919 41.2045 42.9236V44.3384L32.6422 55.8941L26.8859 48.1251L11.175 69.3291L13.2536 70.8694L26.8862 52.4705L31.0327 58.0669L16.0578 78.2771H9.35986V80.8641H73.8869L73.8863 78.2778ZM32.4509 41.7866C29.7119 41.4911 26.9483 42.0467 24.5367 43.3776L20.342 35.4683C23.2642 31.4303 28.711 31.629 33.1267 31.7894C33.9327 31.819 34.6931 31.8461 35.3862 31.8461C37.5045 31.8486 39.5592 31.1212 41.2045 29.7864V38.8885C39.8067 41.6455 37.6991 42.3289 32.4516 41.7866L32.4509 41.7866ZM19.2766 78.2778L42.4972 46.939L65.7178 78.2778H19.2766Z" fill="#A3B18A"/>
<path d="M75.1897 78.2778H77.1013V80.8649H75.1897V78.2778Z" fill="#A3B18A"/>
<path d="M77.8813 78.2778H79.0476V80.8649H77.8813V78.2778Z" fill="#A3B18A"/>
<path d="M5.95422 78.2778H8.1412V80.8649H5.95422V78.2778Z" fill="#A3B18A"/>
<path d="M59.5772 41.982L61.0307 44.122L61.031 44.1217C64.273 41.9203 66.5704 38.582 67.4682 34.7674C68.3664 30.9532 67.7997 26.9404 65.8806 23.5241C63.9614 20.1078 60.8295 17.5359 57.105 16.3182C53.3802 15.1005 49.3339 15.3254 45.7675 16.9488L46.8421 19.3026C49.8191 17.9479 53.1958 17.7603 56.3048 18.7768C59.4134 19.7934 62.027 21.94 63.6282 24.7919C65.2294 27.6435 65.702 30.9925 64.952 34.1759C64.2018 37.3592 62.2841 40.145 59.5778 41.9817L59.5772 41.982Z" fill="#A3B18A"/>
<path d="M53.7866 12.3695L54.8696 5.2168L57.4282 5.60417L56.3452 12.7569L53.7866 12.3695Z" fill="#A3B18A"/>
<path d="M61.7971 14.9004L65.8747 8.92529L68.0122 10.384L63.9346 16.3592L61.7971 14.9004Z" fill="#A3B18A"/>
<path d="M67.9158 20.6555L74.1831 17.0425L75.475 19.2834L69.2076 22.8965L67.9158 20.6555Z" fill="#A3B18A"/>
<path d="M70.9325 28.496L78.1476 27.9595L78.3393 30.5399L71.1242 31.0764L70.9325 28.496Z" fill="#A3B18A"/>
<path d="M69.3005 39.2769L70.2471 36.8691L76.9801 39.516L76.0336 41.9237L69.3005 39.2769Z" fill="#A3B18A"/>
<path d="M64.1007 45.8737L65.9985 44.1147L70.9159 49.4206L69.0181 51.1795L64.1007 45.8737Z" fill="#A3B18A"/>
<path d="M43.3436 6.65131L45.8161 5.89014L47.9442 12.8041L45.4717 13.5653L43.3436 6.65131Z" fill="#A3B18A"/>
</svg>
