<svg width="85" height="85" viewBox="0 0 85 85" fill="none" xmlns="http://www.w3.org/2000/svg">
<path d="M69.4449 39.0148H69.36V31.5348C69.36 16.6598 57.375 4.6748 42.5 4.6748C35.36 4.6748 28.5599 7.47995 23.545 12.5798C18.5299 17.5949 15.64 24.4798 15.64 31.5348V39.0148C11.4749 39.0148 8.07495 42.4148 8.07495 46.5798C8.07495 50.7448 11.475 54.1448 15.64 54.1448C16.065 68.9348 28.39 80.6648 43.18 80.2398C50.0649 80.0699 56.61 77.2648 61.455 72.4198C66.2998 67.5749 69.1049 61.0298 69.275 54.1448H69.3599C73.525 54.1448 76.9249 50.7448 76.9249 46.5798C76.9252 42.4144 73.6101 39.0148 69.4449 39.0148ZM10.8799 46.5798C10.8799 44.0298 13.0049 41.9048 15.5549 41.9048V51.2548C13.0049 51.2548 10.8799 49.2147 10.8799 46.5798ZM66.3849 53.4647C66.3849 66.7247 55.6749 77.4347 42.4149 77.4347C29.1549 77.4347 18.5299 66.7247 18.5299 53.4647V31.5347C18.5299 18.2747 29.2399 7.56473 42.4999 7.56473C55.7599 7.56473 66.4699 18.2747 66.4699 31.5347V53.4647H66.3849ZM69.4448 51.2548H69.3599V41.9048H69.4448C71.9948 41.9048 74.1198 44.0298 74.1198 46.5798C74.1198 49.2147 71.9948 51.2548 69.4448 51.2548Z" fill="#A3B18A"/>
<path d="M46.8349 61.1147C46.0698 61.1147 45.39 61.7949 45.39 62.5596C45.39 64.1747 44.0301 65.5346 42.415 65.5346C40.8 65.5346 39.44 64.1747 39.44 62.5596C39.44 61.7945 38.7599 61.1147 37.9952 61.1147C37.2301 61.1147 36.55 61.7946 36.55 62.5596C36.55 65.7897 39.185 68.4247 42.4151 68.4247C45.6453 68.4247 48.2802 65.7897 48.2802 62.5596C48.2802 61.7945 47.685 61.1147 46.8351 61.1147H46.8349Z" fill="#A3B18A"/>
<path d="M40.8848 46.92V57.375C40.8848 58.14 41.5649 58.8198 42.3296 58.8198C43.0947 58.8198 43.7745 58.1397 43.7745 57.375L43.7748 46.92C43.7748 46.1549 43.0947 45.4751 42.3299 45.4751C41.5648 45.4751 40.8848 46.1552 40.8848 46.92Z" fill="#A3B18A"/>
<path d="M33.7448 29.2397L39.6099 34.5095C41.3099 35.9544 43.7749 35.9544 45.39 34.5095L51.1702 29.2397C52.615 27.8797 53.465 26.0948 53.5503 24.2246C53.6352 22.3547 52.8702 20.5695 51.5952 19.2095C50.3202 17.9345 48.9602 17.2544 47.515 17.2544C45.5599 17.2544 43.7749 18.0195 42.4999 19.2095C41.2249 18.0195 39.44 17.2544 37.4849 17.2544C36.2099 17.2544 34.9349 17.7643 33.8297 18.7845C32.2996 20.1445 31.4496 22.0147 31.3647 23.9695C31.28 25.9246 32.13 27.7945 33.7448 29.2397ZM35.6149 20.9097C36.0399 20.5696 36.6348 20.1446 37.3149 20.1446C38.93 20.1446 40.4598 20.9946 41.055 22.1847C41.3951 22.8648 42.2451 23.2045 43.0102 22.8648C43.2653 22.6949 43.5201 22.5247 43.6903 22.1847C44.2852 20.9097 45.8153 20.1446 47.4303 20.1446C48.2803 20.1446 48.9605 20.7395 49.4704 21.2497C50.2355 22.0997 50.6605 23.1196 50.6605 24.1398C50.6605 25.245 50.1505 26.3497 49.2156 27.1148L43.435 32.2997C42.925 32.7247 42.0751 32.7247 41.5651 32.2997L35.7001 27.1148C34.7651 26.2648 34.1699 25.1597 34.1699 23.97C34.1699 22.7799 34.6801 21.6748 35.6151 20.9097L35.6149 20.9097Z" fill="#A3B18A"/>
<path d="M38.4199 43.2647C38.4199 42.4996 37.7398 41.8198 36.975 41.8198C36.2099 41.8198 35.5301 42.4999 35.5301 43.2647C35.5301 44.8798 34.1702 46.2397 32.5551 46.2397C30.9401 46.2397 29.5801 44.8798 29.5801 43.2647C29.5801 42.4996 28.9 41.8198 28.1353 41.8198C27.3702 41.8198 26.6904 42.4999 26.6904 43.2647C26.6904 46.4948 29.3254 49.1298 32.5555 49.1298C35.7851 49.1298 38.42 46.4945 38.42 43.2647H38.4199Z" fill="#A3B18A"/>
<path d="M56.7799 41.8198C56.0149 41.8198 55.3351 42.4999 55.3351 43.2647C55.3351 44.8797 53.9752 46.2397 52.3601 46.2397C50.745 46.2397 49.3851 44.8797 49.3851 43.2647C49.3851 42.4996 48.705 41.8198 47.9402 41.8198C47.1751 41.8198 46.4954 42.4999 46.4954 43.2647C46.4954 46.4948 49.1303 49.1298 52.3604 49.1298C55.5906 49.1298 58.2255 46.4948 58.2255 43.2647C58.2249 42.4999 57.5448 41.8198 56.7801 41.8198H56.7799Z" fill="#A3B18A"/>
</svg>
