<svg width="85" height="85" viewBox="0 0 85 85" fill="none" xmlns="http://www.w3.org/2000/svg">
<path d="M78.9508 41.7201C78.2856 41.001 62.4381 24.1216 42.4992 24.1216C22.5604 24.1216 6.71354 41.0012 6.0477 41.7201C5.63986 42.1601 5.63986 42.8401 6.0477 43.2787C6.71287 43.9993 22.5604 60.8787 42.4992 60.8787C62.4381 60.8787 78.285 43.9991 78.9508 43.2802C79.3586 42.8402 79.3586 42.1601 78.9508 41.7202V41.7201ZM42.4992 58.5813C25.9561 58.5813 11.8844 45.8214 8.5042 42.5C11.8846 39.1791 25.9568 26.4187 42.4992 26.4187C59.0417 26.4187 73.1141 39.1786 76.4943 42.5C73.1139 45.8209 59.0417 58.5813 42.4992 58.5813Z" fill="#A3B18A"/>
<path d="M28.7166 42.5003C28.7166 50.1007 34.8998 56.2837 42.5 56.2837C50.1002 56.2837 56.2835 50.1005 56.2835 42.5003C56.2835 34.9001 50.1002 28.7168 42.5 28.7168C34.8998 28.7168 28.7166 34.9001 28.7166 42.5003ZM43.6489 41.3517C43.6489 39.4519 45.1951 37.9058 47.0948 37.9058H48.2434V39.0544C48.2434 40.9541 46.6972 42.5003 44.7975 42.5003H43.6489V41.3517ZM41.3518 42.5003H40.2032C38.3035 42.5003 36.7573 40.9541 36.7573 39.0544V37.9058H37.9059C39.8057 37.9058 41.3518 39.4519 41.3518 41.3517V42.5003ZM53.9871 42.5003C53.9871 48.4456 49.4454 53.3505 43.6489 53.9285L43.6487 44.7981H44.7972C47.964 44.7981 50.5405 42.2218 50.5405 39.0548V36.7574C50.5405 36.1221 50.0259 35.6088 49.392 35.6088H47.0946C45.2097 35.6088 43.5476 36.5346 42.5001 37.9416C41.4525 36.5347 39.7904 35.6088 37.9056 35.6088H35.6082C34.974 35.6088 34.4597 36.1224 34.4597 36.7574V39.0548C34.4597 42.2215 37.0359 44.7981 40.203 44.7981H41.3515V53.9285C35.5554 53.3497 31.0134 48.4461 31.0134 42.5003C31.0134 36.1665 36.1662 31.0139 42.4997 31.0139C48.8332 31.0139 53.9861 36.1668 53.9861 42.5003H53.9871Z" fill="#A3B18A"/>
<path d="M41.3518 12.6353H43.6492V21.8245H41.3518V12.6353Z" fill="#A3B18A"/>
<path d="M41.3518 8.04053H43.6492V10.3379H41.3518V8.04053Z" fill="#A3B18A"/>
<path d="M17.5652 19.1904L19.1897 17.5659L26.0813 24.4575L24.4568 26.082L17.5652 19.1904Z" fill="#A3B18A"/>
<path d="M14.1199 15.7441L15.7444 14.1196L17.467 15.8423L15.8425 17.4668L14.1199 15.7441Z" fill="#A3B18A"/>
<path d="M58.917 24.459L65.8086 17.5674L67.4331 19.1919L60.5415 26.0835L58.917 24.459Z" fill="#A3B18A"/>
<path d="M67.5317 15.8442L69.2544 14.1216L70.8789 15.7461L69.1562 17.4687L67.5317 15.8442Z" fill="#A3B18A"/>
<path d="M41.3518 63.1758H43.6492V72.365H41.3518V63.1758Z" fill="#A3B18A"/>
<path d="M41.3518 74.6655H43.6492V76.9629H41.3518V74.6655Z" fill="#A3B18A"/>
<path d="M17.5652 65.8096L24.4568 58.918L26.0813 60.5425L19.1897 67.4341L17.5652 65.8096Z" fill="#A3B18A"/>
<path d="M14.1191 69.2554L15.8418 67.5327L17.4663 69.1572L15.7436 70.8799L14.1191 69.2554Z" fill="#A3B18A"/>
<path d="M58.9163 60.542L60.5407 58.9175L67.4323 65.8091L65.8078 67.4336L58.9163 60.542Z" fill="#A3B18A"/>
<path d="M67.531 69.1567L69.1555 67.5322L70.8782 69.2549L69.2537 70.8794L67.531 69.1567Z" fill="#A3B18A"/>
</svg>
