<svg width="85" height="85" viewBox="0 0 85 85" fill="none" xmlns="http://www.w3.org/2000/svg">
<g clip-path="url(#clip0_143_1573)">
<path d="M7.28157 28.1584C10.2345 27.9575 13.6538 28.6014 17.0615 29.6938C18.8332 30.2842 19.17 29.8827 18.7801 28.0106C18.0183 24.355 17.162 20.7289 17.717 16.9316C18.2012 13.7779 18.981 13.2228 21.9869 13.9787V13.9789C25.3269 14.8597 28.4815 16.3342 31.3001 18.3313C33.7096 19.9967 33.875 19.9259 34.8434 17.0557C35.9125 13.5758 37.3998 10.2383 39.2727 7.1164C39.6761 6.44099 40.1135 5.78665 40.5837 5.15573C42.2314 3.03569 43.6074 2.87603 45.4086 4.90173C48.4678 8.36258 51.3791 11.971 53.1507 16.3116C53.6291 17.4928 53.6349 19.2172 54.7926 19.6128C55.95 20.0084 56.3872 18.154 57.3911 17.5575C60.0958 15.9629 62.6648 14.1146 65.6587 13.0515C69.1547 11.8114 70.1469 12.52 70.2062 16.1756C70.2947 21.4317 69.1431 26.5166 68.1215 31.6187C68.0092 32.1799 67.5311 32.7999 68.0565 33.2723C68.7535 33.8923 69.3205 33.1129 69.8636 32.8058C73.5738 30.748 77.7084 29.5737 81.9464 29.3747C84.5921 29.2154 85.0173 29.7939 84.9878 32.4162C84.9125 34.9955 84.005 37.4813 82.4013 39.503C78.7868 44.4223 74.8894 49.0762 69.6867 52.484C67.3893 53.9781 67.4662 54.1021 69.2852 56.2281L69.2849 56.2279C73.6866 61.4015 77.3004 67.1964 80.0098 73.4255C80.6575 74.9692 81.0983 76.5914 81.3208 78.2504C81.74 81.0556 81.0017 81.7937 78.0668 81.4927C75.1316 81.1914 72.5333 80.1048 69.9642 78.8882C66.2421 77.0941 62.6733 74.9984 59.2924 72.6225C57.6566 71.4885 56.5817 69.7819 55.1584 68.4176C54.5679 67.8271 54.2785 66.6459 53.2273 66.8999C52.3297 67.1185 52.5364 68.1993 52.312 68.9198V68.9195C51.2401 72.4985 49.9079 75.994 48.3257 79.3787C47.0206 82.0954 46.1288 82.2431 44.0974 79.9692H44.0971C41.0388 76.4737 38.7688 72.361 37.4415 67.9098C37.2348 67.2544 37.1048 66.5751 36.851 65.9315C36.3314 64.5436 35.9003 64.4431 34.7545 65.4354C34.1699 65.963 33.6196 66.5269 33.1068 67.1246C26.3331 74.7548 17.4037 78.3453 7.80725 80.7076C4.90145 81.422 3.84448 80.3116 4.72437 77.4296C6.3898 71.9315 8.75797 66.7997 12.4842 62.3166C14.628 59.7536 16.6594 57.1079 19.3052 54.9995C20.9352 53.7002 20.9352 53.346 19.3052 52.1352V52.1355C16.5139 50.1057 13.8679 47.8836 11.386 45.4857C7.05776 41.3309 3.41374 36.5175 0.590322 31.2234C-0.520061 29.1092 -0.177511 28.3829 2.18492 28.2116C3.66718 28.0699 5.14965 28.1585 7.28159 28.1585L7.28157 28.1584ZM37.7427 51.1905C38.0853 51.3145 38.1796 51.1905 38.0499 50.8715C36.1304 47.1096 34.1579 43.3894 33.3254 39.1727C32.4806 34.7672 32.6048 30.3617 33.0298 25.9623C33.1538 24.6217 33.2838 23.3754 32.2266 22.419H32.2269C29.3376 19.734 25.8552 17.7691 22.063 16.6845C20.7932 16.3184 20.2205 16.9443 20.1377 18.1668C20.0237 19.5444 20.0553 20.9301 20.2324 22.3008C20.7667 26.1936 21.8441 29.9926 23.4332 33.5867C26.5014 40.6526 31.4515 46.7404 37.7429 51.1852L37.7427 51.1905ZM49.1937 55.2537C51.8394 54.0194 53.735 51.8756 55.6899 49.8322C60.302 45.0546 63.0544 39.2023 65.0384 32.9895C66.6483 28.1368 67.5027 23.0657 67.5722 17.9537C67.5722 15.4969 66.9817 15.1544 64.7432 16.2293C61.7156 17.6482 58.9841 19.6279 56.6937 22.0639C55.7394 22.9189 55.31 24.2161 55.5656 25.4714C56.4928 30.4853 55.9082 35.4164 54.8747 40.3591C53.7704 45.621 51.2841 50.3041 48.969 55.0762V55.2474L49.1937 55.2537ZM35.3039 31.2235V33.5857C35.3867 41.3341 38.6406 47.8246 43.4002 53.6648C45.0125 55.649 45.7092 55.478 46.985 53.1156C47.9595 51.3024 48.9457 49.4777 49.7666 47.5878C53.0501 40.0342 54.3611 32.2333 52.8199 24.018C51.6387 17.6162 48.5619 12.2661 44.2625 7.48199C43.5008 6.63751 42.7861 6.53707 42.0894 7.48199H42.0891C41.6265 8.11728 41.2061 8.78213 40.8309 9.47226C37.154 16.1287 35.2506 23.6184 35.3035 31.2231L35.3039 31.2235ZM7.04499 30.7393H6.49575C3.48392 30.6804 3.48973 30.7393 4.77139 33.3024C5.88177 35.5406 7.57653 37.3299 9.12983 39.2081C16.1163 47.689 24.4844 54.0491 35.6109 56.0863C36.55 56.2575 37.8845 56.9484 38.3275 56.0863C38.7705 55.2241 37.3768 54.5567 36.6739 53.9839C30.2071 48.6983 24.6379 42.7037 21.2599 34.9503C20.8836 34.0472 20.1302 33.3544 19.1988 33.0547C15.2841 31.69 11.1882 30.9158 7.04521 30.7573L7.04499 30.7393ZM9.44865 77.7365C10.872 77.2642 12.8268 76.6084 14.7636 75.9649C22.9194 73.3664 29.2859 68.2872 34.5183 61.6615C35.9829 59.8071 35.6996 59.0157 33.4553 58.254C30.8507 57.3623 28.1815 56.6536 25.6246 55.6614V55.6611C25.0159 55.3631 24.3325 55.2522 23.6606 55.3424C22.9891 55.4328 22.3591 55.7206 21.8511 56.1691C18.1365 59.0274 15.3017 62.6653 12.5733 66.3975C10.4118 69.3504 8.98851 72.7105 7.76026 76.1477C7.44124 77.1518 7.46475 77.9728 9.44921 77.7365L9.44865 77.7365ZM78.4679 77.3409C78.4134 76.8774 78.3207 76.4189 78.1904 75.9707C75.4791 68.9892 71.5254 62.5563 66.5206 56.9838C66.1161 56.4694 65.5345 56.1241 64.8893 56.0148C64.2443 55.9058 63.5813 56.0405 63.0302 56.3933C60.5203 57.8047 57.7799 58.5784 55.0692 59.4643C53.1498 60.0902 52.8368 60.7518 53.9707 62.4584C55.9256 65.4113 57.957 68.3642 60.8153 70.5015H60.8156C64.8918 73.611 69.4076 76.0968 74.2151 77.8774C75.1359 78.2194 76.0792 78.4975 77.0382 78.7103C77.9947 78.8993 78.5439 78.4682 78.4792 77.3401L78.4679 77.3409ZM53.3334 57.2086C53.7291 57.1082 54.5147 56.9369 55.2468 56.7183C66.0956 53.5115 74.3456 46.8442 80.6413 37.5898C81.245 36.6916 81.72 35.7138 82.0527 34.6842C82.6431 32.7708 82.0823 32.0738 80.092 32.3752V32.3749C76.7667 32.8112 73.5488 33.8499 70.5961 35.4401C69.8283 35.8653 69.043 36.4793 68.2339 36.5621C66.5508 36.7333 65.9839 37.7903 65.4346 39.1489L65.4343 39.1486C63.1256 44.929 59.5142 50.0987 54.8809 54.2552C54.1485 54.9107 53.3925 55.5427 52.672 56.2159H52.6723C52.449 56.3933 52.3012 56.6487 52.2586 56.9303C52.2824 57.2906 52.6662 57.2081 53.3336 57.2081L53.3334 57.2086ZM44.3808 60.8878V60.8288H42.6091H40.8375C39.0658 60.9174 38.6997 61.2303 38.918 62.9254C39.5854 68.0929 41.7763 72.6579 44.7941 76.8392C45.6386 78.0204 46.1759 77.9022 46.8375 76.4316V76.4313C48.5275 72.8908 49.7085 69.1291 50.3454 65.2581C50.4243 64.4734 50.4519 63.6842 50.4281 62.8956C50.4281 61.5905 49.8377 60.8818 48.4794 60.8699C47.1208 60.8583 45.7509 60.8879 44.3807 60.8879L44.3808 60.8878Z" fill="#A3B18A"/>
</g>
<defs>
<clipPath id="clip0_143_1573">
<rect width="85" height="85" fill="white"/>
</clipPath>
</defs>
</svg>
