<svg width="85" height="85" viewBox="0 0 85 85" fill="none" xmlns="http://www.w3.org/2000/svg">
<path d="M42.4999 79.6874C42.8533 79.6877 43.1922 79.5471 43.4415 79.297L75.7507 46.8546C79.9669 42.6049 82.333 36.8608 82.333 30.8746C82.333 24.8881 79.967 19.1439 75.7507 14.8946L75.4491 14.5905C72.6595 11.7852 69.1782 9.76644 65.3575 8.73908C61.5369 7.71143 57.5127 7.71143 53.692 8.73908C49.8714 9.76644 46.3898 11.7852 43.6003 14.5905L42.4994 15.6968L41.3984 14.5905C38.6088 11.7849 35.1275 9.76616 31.3068 8.73851C27.4862 7.71086 23.462 7.71086 19.6412 8.73851C15.8204 9.76616 12.339 11.7849 9.54962 14.5905L9.24803 14.8932C5.03182 19.143 2.66577 24.8871 2.66577 30.8732C2.66577 36.8594 5.03175 42.604 9.24803 46.8532L41.5572 79.297C41.8065 79.5472 42.1455 79.6877 42.4988 79.6875L42.4999 79.6874ZM11.1321 16.7676L11.4337 16.4649H11.4334C13.8932 13.991 16.9626 12.2107 20.3315 11.3045C23.7005 10.3984 27.2488 10.3984 30.6172 11.3045C33.9856 12.2107 37.0556 13.991 39.5153 16.4649L41.5578 18.5169H41.5581C41.8121 18.7579 42.1494 18.8923 42.4997 18.8923C42.85 18.8923 43.1873 18.7579 43.4413 18.5169L45.4841 16.4688C47.9437 13.9951 51.0133 12.2152 54.3822 11.309C57.751 10.4031 61.2992 10.4031 64.6679 11.309C68.0367 12.2152 71.1063 13.9951 73.566 16.4688L73.8676 16.7743H73.8673C77.5894 20.5257 79.6778 25.5958 79.6778 30.88C79.6778 36.1643 77.5894 41.2344 73.8673 44.9858L42.4995 76.4768L11.1316 44.9801C7.40957 41.2287 5.32112 36.1578 5.32112 30.8736C5.32112 25.5891 7.40957 20.5185 11.1316 16.7672L11.1321 16.7676Z" fill="#A3B18A"/>
<path d="M11.302 33.2775C11.3839 35.3039 11.8166 37.3009 12.5809 39.1796L15.0418 38.1796H15.0421C14.3943 36.5843 14.0266 34.8889 13.9555 33.1685L11.302 33.2775Z" fill="#A3B18A"/>
<path d="M12.0854 27.2928L14.6221 28.0803C15.1312 26.4359 15.9228 24.8928 16.961 23.5195L14.836 21.9258C13.6153 23.5419 12.6848 25.3582 12.0854 27.2928Z" fill="#A3B18A"/>
<path d="M25.3357 17.7863L24.6465 15.2202C22.6891 15.7454 20.837 16.6029 19.1704 17.7556L20.6792 19.9403C22.0967 18.9611 23.6717 18.2326 25.3357 17.7863Z" fill="#A3B18A"/>
<path d="M69.9521 38.194L72.4106 39.1953V39.1956C73.1756 37.3191 73.6111 35.3247 73.6975 33.2999L71.0412 33.1831C70.9684 34.9036 70.5999 36.5986 69.9521 38.194Z" fill="#A3B18A"/>
<path d="M72.9228 27.3125C72.3257 25.3749 71.3955 23.5559 70.1736 21.9375L68.0486 23.5312C69.0876 24.9061 69.8795 26.4512 70.3888 28.0975L72.9228 27.3125Z" fill="#A3B18A"/>
<path d="M65.8479 17.7679C64.1828 16.6135 62.3314 15.7541 60.3746 15.2273L59.6826 17.7972C61.345 18.2443 62.9174 18.9748 64.3311 19.9568L65.8479 17.7679Z" fill="#A3B18A"/>
<path d="M42.4999 57.1094C42.5641 57.1019 42.6275 57.09 42.6897 57.0734C43.33 57.0947 43.9581 57.108 44.5652 57.108C51.9163 57.108 56.9065 55.5793 60.1676 52.3519C63.7668 48.7914 65.2743 43.2966 65.0579 34.5309C65.0496 34.1925 64.9126 33.8702 64.6747 33.6294C64.4367 33.3887 64.1158 33.2481 63.7777 33.236C59.8298 32.9723 55.8656 33.3895 52.0597 34.4697C50.6638 30.8838 47.8589 27.1654 43.4152 22.9381C43.1701 22.7048 42.8452 22.574 42.5065 22.5723C42.1682 22.5704 41.8419 22.6979 41.5943 22.9287C37.1384 27.0763 34.29 30.8521 32.8938 34.5007L32.8941 34.501C29.112 33.4357 25.1804 33.0027 21.2569 33.2193C20.9188 33.2274 20.5964 33.3643 20.356 33.602C20.1152 33.8397 19.9744 34.1601 19.962 34.4982C19.6565 43.0074 21.1573 48.6308 24.6782 52.1938C28.0156 55.5672 33.045 57.1078 40.8813 57.1078C41.3741 57.1078 41.8802 57.0998 42.394 57.0879C42.431 57.092 42.4656 57.1092 42.5002 57.1092L42.4999 57.1094ZM62.4218 35.8594C62.4497 43.0008 61.1297 47.6581 58.3046 50.4581C55.7361 53.0001 51.7105 54.287 45.7685 54.4331C45.9013 54.3003 46.0128 54.1674 46.1376 54.0346C46.3568 53.8022 46.5787 53.5684 46.787 53.3374C46.9957 53.1063 47.2134 52.8512 47.4218 52.6097C47.5266 52.4874 47.6381 52.364 47.7405 52.2417C47.9782 51.9589 48.2026 51.6786 48.4245 51.3984C48.4856 51.3214 48.5507 51.2429 48.6104 51.1659C48.8495 50.8591 49.0753 50.5536 49.2944 50.2509L49.3993 50.1076C49.6278 49.788 49.845 49.4693 50.0514 49.1513C50.07 49.1209 50.0913 49.0916 50.1098 49.0622C50.3237 48.7316 50.5243 48.3982 50.7141 48.078L50.7434 48.0288C50.9388 47.6915 51.1206 47.3567 51.2908 47.0222L51.2988 47.0075C51.9639 45.7289 52.4642 44.3709 52.7877 42.9661V42.9594C52.8594 42.6327 52.9205 42.3059 52.9709 41.9805L52.9789 41.9221C53.0226 41.6153 53.06 41.3084 53.0838 41.0019C53.0838 40.946 53.0838 40.889 53.0932 40.8331C53.1103 40.5675 53.125 40.3019 53.1264 40.0362V39.9778C53.1264 39.8318 53.117 39.6857 53.1131 39.5382C53.1092 39.3907 53.1131 39.2327 53.0998 39.08C53.0616 38.386 52.9728 37.6957 52.8342 37.0148C55.9456 36.1094 59.1842 35.719 62.4222 35.8593L62.4218 35.8594ZM42.4893 25.7472C46.5614 29.7742 49.0051 33.3179 49.9785 36.6378C50.0023 36.7228 50.0197 36.8077 50.0421 36.8929C50.1456 37.2742 50.2228 37.6514 50.2865 38.0257C50.3169 38.2089 50.3501 38.3923 50.3728 38.5755C50.4165 38.9355 50.4378 39.2927 50.4458 39.6474C50.4525 39.9368 50.4458 40.2279 50.4245 40.5187C50.414 40.7008 50.4007 40.8826 50.3819 41.0647C50.3526 41.3303 50.3222 41.6064 50.2743 41.8787C50.2372 42.0873 50.1827 42.297 50.1335 42.5068C50.0366 42.9199 49.9196 43.3354 49.7776 43.7538C49.7046 43.9677 49.6277 44.1827 49.5424 44.3979C49.4456 44.645 49.3485 44.8921 49.2356 45.1417C49.0497 45.5506 48.8372 45.9637 48.6128 46.3796C48.4985 46.5883 48.3684 46.7994 48.2437 47.0091C48.0525 47.3279 47.8488 47.6494 47.6327 47.9734C47.5104 48.1554 47.3937 48.3372 47.2636 48.5218C46.9244 48.9999 46.5575 49.4838 46.1626 49.9733C46.0298 50.134 45.897 50.2959 45.7642 50.4567C45.41 50.8817 45.0343 51.3116 44.6367 51.7463C44.5224 51.8711 44.4148 51.9948 44.298 52.121C43.7933 52.6602 43.2527 53.2086 42.6844 53.764C42.6285 53.8198 42.5687 53.8755 42.5117 53.93L42.3709 53.7972C37.7039 49.1487 35.199 45.1364 34.6529 41.3794L34.6424 41.2997C34.5676 40.7776 34.5306 40.2507 34.5308 39.7231C34.5375 39.2342 34.5759 38.7461 34.6465 38.2621C34.6598 38.1664 34.6731 38.0723 34.6891 37.9766C35.3039 34.2166 37.8207 30.2706 42.4893 25.7472ZM22.5844 35.8594C25.814 35.7725 29.038 36.1756 32.1469 37.0547C32.1242 37.1676 32.111 37.2818 32.0924 37.3961C32.0631 37.5608 32.034 37.7254 32.0113 37.8889C31.9887 38.0522 31.9676 38.2555 31.9488 38.4373C31.9342 38.59 31.9195 38.7414 31.9104 38.8928C31.8971 39.0815 31.8904 39.2713 31.8866 39.46C31.8866 39.5435 31.876 39.626 31.876 39.7084V39.9157C31.876 40.0911 31.8827 40.2676 31.8921 40.4469C31.9015 40.6262 31.9134 40.8268 31.9306 41.018C31.9411 41.1392 31.9532 41.2601 31.9665 41.3805C31.9983 41.658 32.0396 41.9369 32.0874 42.2158L32.1021 42.2994C32.7927 46.1377 35.0851 50.0266 39.2605 54.4303C33.1866 54.2272 29.108 52.903 26.5622 50.3358C23.7585 47.4908 22.4835 42.8756 22.5845 35.8589L22.5844 35.8594Z" fill="#A3B18A"/>
</svg>
