<svg width="85" height="85" viewBox="0 0 85 85" fill="none" xmlns="http://www.w3.org/2000/svg">
<path d="M70.9112 66.1581C71.1542 65.6335 71.2911 65.0499 71.2911 64.4349C71.2911 62.6477 70.1448 61.1237 68.5491 60.5579V60.3113C68.5491 52.0175 66.4501 43.7852 62.4785 36.5043C61.4738 34.6626 60.0192 33.1269 58.2822 32.0171C61.8321 30.7131 64.8144 28.043 66.4485 24.5017L71.8582 12.7809L67.0697 11.5837C65.6231 11.222 64.1387 11.0189 62.6484 10.9766C62.1905 8.37738 61.3621 5.86747 60.1781 3.50015L59.6693 2.48249L58.5752 2.79515C55.2513 3.74475 52.1186 5.37639 49.4264 7.5468L45.7644 1.79187C45.0505 0.669871 43.8306 0 42.5008 0C41.1711 0 39.9511 0.669871 39.2372 1.79159L35.5749 7.54651C32.8821 5.37582 29.7495 3.74418 26.4254 2.79487L25.3314 2.48221L24.8225 3.49987C23.6386 5.86783 22.8102 8.37766 22.3522 10.9763C20.8622 11.0187 19.3775 11.222 17.931 11.5834L13.1425 12.7806L18.5521 24.5014C20.1865 28.0425 23.1687 30.7129 26.7185 32.0168C24.9814 33.1266 23.5268 34.6623 22.5222 36.504C18.5513 43.7849 16.4521 52.0179 16.4521 60.3118V60.5583C14.8564 61.1244 13.7101 62.6482 13.7101 64.4353C13.7101 65.0504 13.8468 65.6339 14.0897 66.1585C10.5688 67.7086 8.22632 71.2057 8.22632 75.16C8.22632 80.5854 12.6404 84.9995 18.0658 84.9995H66.9351C72.3608 84.9995 76.7746 80.5854 76.7746 75.16C76.7746 71.2055 74.4321 67.7084 70.9109 66.1578L70.9112 66.1581ZM38.3874 42.832C38.3874 40.3808 40.3821 38.3863 42.833 38.3863C44.0206 38.3863 45.1368 38.8487 45.9766 39.6885L47.9843 41.6964L49.992 39.6887C50.8315 38.8492 51.9479 38.3866 53.1355 38.3866C55.5867 38.3863 57.5811 40.3807 57.5811 42.832C57.5811 43.1864 57.5391 43.5339 57.4588 43.8704H48.5076L47.7498 45.3861L43.6367 39.9023L41.6531 43.8704H38.5096C38.4297 43.5342 38.3873 43.1864 38.3873 42.832H38.3874ZM43.3476 46.6124L44.1055 45.0967L48.2185 50.5805L50.2024 46.6124H55.6419L47.9841 54.2702L40.3263 46.6124H43.3476ZM55.327 50.8051C56.8042 53.9469 57.5809 57.3926 57.5809 60.8748V63.0642H54.8389V51.2932L55.327 50.8051ZM61.694 63.0642H67.1778C67.9337 63.0642 68.5487 63.6793 68.5487 64.4352C68.5487 65.1912 67.9337 65.8062 67.1778 65.8062H61.694C60.938 65.8062 60.323 65.1911 60.323 64.4352C60.323 63.679 60.9381 63.0642 61.694 63.0642ZM67.9813 14.6376L63.959 23.3529C62.0501 27.4887 57.8734 30.161 53.3184 30.161C52.4128 30.161 51.5052 30.0511 50.621 29.8419C53.2036 27.5789 54.8392 24.2599 54.8392 20.5642C54.8392 18.8703 54.5619 17.2015 54.0273 15.6158C56.5151 14.366 59.2704 13.7091 62.0634 13.7091C63.5255 13.7091 64.9858 13.889 66.4041 14.2434L67.9813 14.6376ZM58.2212 5.77778C58.9746 7.48055 59.5269 9.25804 59.8775 11.0856C57.4611 11.3435 55.1048 12.0263 52.923 13.1038C52.7634 12.8133 52.5954 12.5266 52.4164 12.2455L50.9079 9.87507C53.0705 8.08291 55.5638 6.68565 58.2214 5.77778H58.2212ZM41.5498 3.2632C41.7573 2.9367 42.1126 2.74163 42.5 2.74163C42.8874 2.74163 43.2426 2.9367 43.4504 3.2632L50.103 13.7175C51.4073 15.7675 52.0968 18.1349 52.0968 20.5645C52.0968 25.856 47.7917 30.161 42.5003 30.161C37.2088 30.161 32.9038 25.856 32.9038 20.5645C32.9038 18.1349 33.5933 15.7675 34.8976 13.7178L41.5498 3.2632ZM26.779 5.77778C29.4363 6.68558 31.9296 8.08263 34.0918 9.87478L32.5832 12.2452C32.4042 12.5263 32.2363 12.813 32.0766 13.1035C29.8949 12.0263 27.5386 11.3434 25.1222 11.0853C25.4731 9.25804 26.0253 7.48055 26.7788 5.77778H26.779ZM21.0412 23.3529L17.0189 14.6376L18.5955 14.2433C20.0138 13.8889 21.4745 13.709 22.9365 13.709C25.7298 13.709 28.485 14.3656 30.9733 15.6154C30.4387 17.2015 30.1612 18.8699 30.1612 20.5641C30.1612 24.2596 31.7967 27.5785 34.3791 29.8418C33.4951 30.051 32.5875 30.1608 31.6816 30.1608C27.127 30.1606 22.95 27.4883 21.0417 23.3526L21.0412 23.3529ZM24.9293 37.8171C26.2206 35.4494 28.4643 33.7256 31.0848 33.0879L31.8566 32.9C33.7245 32.8767 35.5952 32.4847 37.3174 31.7572C38.8943 32.4907 40.6493 32.9027 42.4998 32.9027C44.3504 32.9027 46.1054 32.4905 47.6823 31.7575C49.4044 32.485 51.2752 32.877 53.1431 32.9003L53.9146 33.0879C56.5351 33.7256 58.7788 35.4494 60.0701 37.8171C63.8229 44.6965 65.8062 52.4747 65.8062 60.3117V60.3222H61.6932C61.2107 60.3222 60.7474 60.4066 60.3172 60.5596C60.2679 56.4537 59.2561 52.4017 57.374 48.7573L58.2171 47.9143C59.5748 46.5565 60.3222 44.7517 60.3222 42.832C60.3224 38.8686 57.0981 35.6445 53.1354 35.6445C51.2155 35.6445 49.4106 36.3922 48.0531 37.7496L47.9839 37.8185L47.9153 37.7496C46.5576 36.3922 44.7527 35.6445 42.8327 35.6445C38.8694 35.6445 35.6453 38.8686 35.6453 42.832C35.6453 44.7519 36.3929 46.5568 37.7504 47.9143L47.9837 58.1483L52.0967 54.0353V63.0644H32.903V41.1287H30.1609V44.7689C26.6857 49.2834 24.7496 54.8598 24.6805 60.5591C24.2505 60.4061 23.7881 60.3222 23.3062 60.3222H19.1935V60.3114C19.1935 52.4752 21.1768 44.6962 24.9293 37.8169L24.9293 37.8171ZM30.161 63.0642H27.4189V60.8751C27.4189 57.0188 28.3755 53.2159 30.161 49.8286V63.0642ZM17.8225 63.0642H23.3063C24.0622 63.0642 24.6773 63.6793 24.6773 64.4352C24.6773 65.1912 24.0622 65.8062 23.3063 65.8062L17.8225 65.8059C17.0666 65.8059 16.4515 65.1908 16.4515 64.4349C16.4515 63.6791 17.0666 63.0642 17.8225 63.0642ZM43.8708 74.0321V82.2579H38.387V74.0321H43.8708ZM49.3545 76.7741V79.5161C49.3545 81.028 48.1244 82.2582 46.6125 82.2582V74.0323C48.1244 74.032 49.3545 75.2622 49.3545 76.774V76.7741ZM66.9339 82.2579H51.3584C51.8266 81.4505 52.0961 80.5145 52.0961 79.5158V76.7738C52.0961 75.7752 51.8266 74.8392 51.3584 74.0318H63.8669C64.7509 74.0318 65.5821 74.376 66.2071 75.0014L68.1459 73.0626C67.0029 71.9195 65.4833 71.2901 63.8666 71.2901L21.1314 71.2904C19.5147 71.2904 17.9951 71.9199 16.8521 73.0629L18.7909 75.0016C19.4159 74.3766 20.2471 74.0321 21.1311 74.0321H35.6442V82.2579H18.0648C14.1509 82.2579 10.9673 79.0741 10.9673 75.1604C10.9673 71.8974 13.178 69.066 16.3436 68.2747L16.347 68.2738C16.8052 68.4504 17.3021 68.5483 17.822 68.5483H23.3058C25.0929 68.5483 26.6169 67.4019 27.1828 65.8063H57.8153C58.3815 67.4019 59.9052 68.5483 61.6923 68.5483H67.1761C67.696 68.5483 68.1929 68.4504 68.6509 68.2738L68.6547 68.2747C71.8206 69.066 74.0311 71.8974 74.0311 75.1604C74.0311 79.074 70.8472 82.2579 66.9336 82.2579L66.9339 82.2579Z" fill="#A3B18A"/>
</svg>
