<svg width="54" height="54" viewBox="0 0 54 54" fill="none" xmlns="http://www.w3.org/2000/svg">
<path d="M53.4214 25.8018C49.7281 23.0206 45.7354 21.614 41.5561 21.614H41.0124C40.6445 21.614 40.2807 21.6381 39.9182 21.6596C40.2579 21.3576 40.5895 21.0489 40.9144 20.72C43.9834 17.7389 45.8817 13.8557 46.5342 9.17658C46.5669 8.94669 46.5457 8.71233 46.4722 8.49205C46.3987 8.27177 46.2749 8.07161 46.1107 7.90741C45.9465 7.74321 45.7463 7.61947 45.526 7.54598C45.3056 7.47249 45.0712 7.45127 44.8413 7.48399C40.1639 8.14439 36.28 10.0343 33.2956 13.1054C32.968 13.4235 32.6605 13.7564 32.3558 14.096C32.3826 13.6436 32.4014 13.1899 32.3947 12.7336C32.4578 8.45445 31.0522 4.37264 28.206 0.596863C28.0664 0.411485 27.8856 0.261074 27.6779 0.157495C27.4702 0.0539153 27.2413 0 27.0092 0C26.7771 0 26.5481 0.0539153 26.3404 0.157495C26.1327 0.261074 25.9519 0.411485 25.8123 0.596863C22.9715 4.3713 21.5632 8.45445 21.625 12.7336C21.6183 13.1899 21.6371 13.6423 21.6626 14.096C21.3632 13.7577 21.0544 13.4248 20.7228 13.1054C17.7424 10.0356 13.8598 8.13902 9.17707 7.48399C8.94718 7.45156 8.71289 7.47298 8.4927 7.54657C8.27251 7.62016 8.07244 7.74391 7.90827 7.90804C7.7441 8.07218 7.62033 8.27221 7.54673 8.49236C7.47312 8.7125 7.4517 8.94674 7.48414 9.17658C8.14466 13.8544 10.0349 17.7375 13.1053 20.72C13.4248 21.0502 13.7605 21.3589 14.1015 21.6596C13.7376 21.6395 13.3725 21.614 13.006 21.614H12.4595C8.2816 21.614 4.28893 23.022 0.596981 25.8032C0.411566 25.9427 0.261126 26.1235 0.157526 26.3312C0.0539261 26.5388 0 26.7677 0 26.9998C0 27.2318 0.0539261 27.4607 0.157526 27.6684C0.261126 27.876 0.411566 28.0568 0.596981 28.1964C4.29027 30.9762 8.2816 32.3842 12.4622 32.3842H12.7307C12.822 32.3842 12.9214 32.3842 12.9992 32.3842C13.3684 32.3842 13.7323 32.3587 14.0988 32.3386C13.7578 32.6406 13.4275 32.9507 13.1026 33.2782C10.0309 36.258 8.13527 40.1425 7.48011 44.8216C7.45067 45.0333 7.46678 45.2488 7.52736 45.4537C7.58795 45.6587 7.69162 45.8483 7.83144 46.01C7.97125 46.1716 8.14399 46.3015 8.33808 46.391C8.53218 46.4805 8.74315 46.5276 8.95689 46.529C9.02746 46.5289 9.09792 46.5235 9.16767 46.5129C13.8464 45.8538 17.7303 43.9626 20.7134 40.8942C21.0423 40.5761 21.3498 40.2405 21.6532 39.9022C21.6263 40.3559 21.6075 40.8083 21.6142 41.266C21.5525 45.5438 22.9568 49.6256 25.8029 53.4013C25.9422 53.5872 26.1229 53.7381 26.3306 53.842C26.5384 53.9459 26.7675 54 26.9998 54C27.2321 54 27.4612 53.9459 27.6689 53.842C27.8767 53.7381 28.0573 53.5872 28.1966 53.4013C31.0374 49.6256 32.4471 45.5438 32.3853 41.266C32.392 40.8096 32.3732 40.3559 32.345 39.9036C32.6471 40.2418 32.9532 40.5747 33.2848 40.8942C36.2652 43.9626 40.1492 45.8525 44.8305 46.5129C44.9003 46.5236 44.9708 46.5289 45.0413 46.529C45.2552 46.528 45.4664 46.4813 45.6607 46.3919C45.855 46.3025 46.0279 46.1726 46.1678 46.0109C46.3077 45.8491 46.4114 45.6593 46.4718 45.4542C46.5322 45.2491 46.548 45.0334 46.5181 44.8216C45.8603 40.1425 43.9673 36.2593 40.8969 33.2782C40.5774 32.948 40.2404 32.6379 39.9008 32.3386C40.266 32.3587 40.6298 32.3842 40.9976 32.3842H41.5346C45.7139 32.3842 49.7079 30.9762 53.4012 28.1964C53.5871 28.0571 53.738 27.8765 53.842 27.6688C53.9459 27.4611 54 27.232 54 26.9998C54 26.7675 53.9459 26.5385 53.842 26.3308C53.738 26.1231 53.5871 25.9424 53.4012 25.8032L53.4214 25.8018ZM25.9774 26.5803L27.0152 25.5441L28.0516 26.5803L27.0166 27.6165L25.9774 26.5803ZM35.4006 15.2409L35.4329 15.2074C37.4896 13.0839 40.082 11.6262 43.1618 10.8571C42.3925 13.9336 40.9345 16.5268 38.8107 18.5831C38.7986 18.5939 38.7878 18.606 38.7771 18.6167C36.7203 20.7388 34.132 22.1965 31.0441 22.9656C31.8188 19.8892 33.2768 17.2946 35.4006 15.2396V15.2409ZM24.6255 12.7094C24.5799 9.75644 25.3814 6.88938 27.0152 4.1713C28.6491 6.88938 29.4506 9.75376 29.4036 12.7081V12.755C29.4519 15.708 28.6491 18.5724 27.0152 21.2918C25.3814 18.5737 24.5812 15.708 24.6255 12.755V12.7094ZM10.87 10.8571C13.9484 11.6249 16.5408 13.0826 18.5962 15.2074L18.6311 15.2409C20.7537 17.2959 22.213 19.8878 22.9796 22.967C19.9039 22.1978 17.3101 20.7401 15.2533 18.6154C15.2415 18.6048 15.2303 18.5936 15.2198 18.5818C13.0959 16.5255 11.6379 13.9336 10.87 10.8558V10.8571ZM12.7697 29.3803H12.7213C12.639 29.3803 12.5571 29.3803 12.4757 29.3803C9.60802 29.3803 6.8263 28.5749 4.18153 26.9897C6.8263 25.4018 9.60668 24.5991 12.473 24.5991C12.5562 24.5991 12.6394 24.5991 12.7213 24.5991H12.7697C12.8529 24.5991 12.9361 24.5991 13.018 24.5991C15.8843 24.5991 18.666 25.4045 21.3095 26.9897C18.6647 28.5776 15.883 29.3803 13.0167 29.3803C12.9335 29.3897 12.8516 29.3883 12.7697 29.3856V29.3803ZM18.6311 38.7519L18.5962 38.7855C16.5408 40.9076 13.9484 42.3653 10.87 43.1357C11.6366 40.0593 13.0959 37.466 15.2198 35.4084L15.2547 35.3748C17.3101 33.2527 19.9025 31.795 22.9809 31.0259C22.213 34.1091 20.7537 36.701 18.6311 38.7573V38.7519ZM29.4036 41.2834C29.4519 44.2364 28.6491 47.1021 27.0152 49.8215C25.3814 47.1021 24.5812 44.2391 24.6255 41.2834V41.2365C24.5799 38.2835 25.3814 35.4164 27.0152 32.697C28.6491 35.4164 29.4506 38.2808 29.4036 41.2365V41.2834ZM43.1604 43.1357C40.0834 42.3666 37.491 40.9089 35.4329 38.7868L35.4006 38.7519C33.2768 36.6956 31.8188 34.1037 31.0495 31.0259C34.1266 31.7937 36.7203 33.2513 38.7757 35.3748L38.8107 35.4084C40.9332 37.4714 42.3912 40.062 43.1604 43.1411V43.1357ZM41.5494 29.3843H41.3024H41.2541C41.1726 29.3843 41.0907 29.3843 41.0084 29.3843C38.1407 29.3843 35.3604 28.5789 32.7169 26.9937C35.3604 25.4058 38.1394 24.6032 41.007 24.6032C41.0903 24.6032 41.1722 24.6032 41.2541 24.6032H41.3037C41.387 24.6032 41.4689 24.6032 41.5521 24.6032C44.4184 24.6032 47.2001 25.4085 49.8435 26.9937C47.2041 28.5857 44.4238 29.3897 41.5548 29.3897L41.5494 29.3843Z" fill="#344E41"/>
</svg>