<svg width="212" height="74" viewBox="0 0 212 74" fill="none" xmlns="http://www.w3.org/2000/svg">
<path d="M83.4542 0.74V73.26C83.4542 73.6695 82.9379 74 82.3031 74H81.2244C80.588 74 80.0732 73.6711 80.0732 73.26V0.74C80.0732 0.330533 80.588 0 81.2244 0H82.2982C82.9379 0 83.4542 0.330533 83.4542 0.74Z" fill="#A3B18A"/>
<path d="M66.2074 35.5364C61.6835 32.1291 56.793 30.4057 51.6738 30.4057H51.0078C50.5572 30.4057 50.1116 30.4353 49.6676 30.4616C50.0836 30.0916 50.4898 29.7134 50.8878 29.3105C54.647 25.6582 56.9722 20.9008 57.7714 15.1683C57.8115 14.8867 57.7855 14.5995 57.6955 14.3297C57.6054 14.0598 57.4538 13.8146 57.2527 13.6134C57.0515 13.4122 56.8063 13.2606 56.5364 13.1706C56.2665 13.0806 55.9794 13.0546 55.6978 13.0947C49.9685 13.9037 45.2111 16.2191 41.5555 19.9816C41.1543 20.3713 40.7777 20.7792 40.4044 21.1952C40.4373 20.641 40.4603 20.0852 40.4521 19.5261C40.5294 14.2836 38.8077 9.28284 35.3215 4.65702C35.1504 4.4299 34.929 4.24563 34.6746 4.11873C34.4202 3.99183 34.1397 3.92578 33.8554 3.92578C33.5711 3.92578 33.2907 3.99183 33.0363 4.11873C32.7819 4.24563 32.5604 4.4299 32.3894 4.65702C28.9098 9.2812 27.1847 14.2836 27.2604 19.5261C27.2522 20.0852 27.2752 20.6394 27.3064 21.1952C26.9397 20.7808 26.5615 20.373 26.1553 19.9816C22.5047 16.2208 17.7489 13.8972 12.0131 13.0947C11.7315 13.0549 11.4445 13.0812 11.1748 13.1713C10.9051 13.2615 10.66 13.4131 10.459 13.6142C10.2579 13.8153 10.1063 14.0603 10.0161 14.33C9.92596 14.5997 9.89971 14.8867 9.93945 15.1683C10.7485 20.8992 13.0639 25.6566 16.8247 29.3105C17.2161 29.7151 17.6272 30.0933 18.0449 30.4616C17.5993 30.437 17.152 30.4057 16.7031 30.4057H16.0338C10.9163 30.4057 6.02567 32.1308 1.50345 35.538C1.27634 35.7091 1.09207 35.9305 0.965169 36.1849C0.83827 36.4393 0.772217 36.7198 0.772217 37.0041C0.772217 37.2884 0.83827 37.5688 0.965169 37.8232C1.09207 38.0776 1.27634 38.2991 1.50345 38.4701C6.02732 41.8757 10.9163 43.6008 16.0371 43.6008H16.3659C16.4778 43.6008 16.5995 43.6008 16.6948 43.6008C17.1471 43.6008 17.5927 43.5695 18.0416 43.5448C17.6239 43.9148 17.2194 44.2947 16.8215 44.696C13.059 48.3466 10.737 53.1056 9.93452 58.8382C9.89845 59.0975 9.91818 59.3615 9.9924 59.6126C10.0666 59.8637 10.1936 60.096 10.3649 60.294C10.5361 60.4921 10.7477 60.6513 10.9854 60.7609C11.2232 60.8706 11.4816 60.9282 11.7434 60.9299C11.8298 60.9298 11.9161 60.9232 12.0016 60.9102C17.7325 60.1028 22.4899 57.7857 26.1438 54.0265C26.5467 53.6368 26.9233 53.2257 27.2949 52.8113C27.262 53.3671 27.239 53.9213 27.2472 54.482C27.1716 59.7229 28.8917 64.7236 32.3779 69.3495C32.5485 69.5772 32.7698 69.762 33.0243 69.8893C33.2788 70.0166 33.5594 70.0829 33.8439 70.0829C34.1285 70.0829 34.4091 70.0166 34.6635 69.8893C34.918 69.762 35.1393 69.5772 35.3099 69.3495C38.7896 64.7236 40.5163 59.7229 40.4406 54.482C40.4488 53.9229 40.4258 53.3671 40.3913 52.8129C40.7613 53.2273 41.1362 53.6352 41.5424 54.0265C45.1931 57.7857 49.9504 60.1011 55.6846 60.9102C55.77 60.9233 55.8564 60.9299 55.9428 60.9299C56.2048 60.9287 56.4635 60.8715 56.7015 60.762C56.9395 60.6525 57.1513 60.4933 57.3226 60.2952C57.494 60.097 57.621 59.8645 57.695 59.6131C57.769 59.3618 57.7883 59.0976 57.7517 58.8382C56.9459 53.1056 54.6272 48.3483 50.8664 44.696C50.475 44.2914 50.0623 43.9116 49.6462 43.5448C50.0935 43.5695 50.5391 43.6008 50.9897 43.6008H51.6475C56.7667 43.6008 61.6589 41.8757 66.1828 38.4701C66.4105 38.2995 66.5953 38.0782 66.7226 37.8237C66.8499 37.5692 66.9162 37.2886 66.9162 37.0041C66.9162 36.7195 66.8499 36.4389 66.7226 36.1844C66.5953 35.93 66.4105 35.7087 66.1828 35.538L66.2074 35.5364ZM32.5917 36.4902L33.8628 35.2207L35.1323 36.4902L33.8645 37.7597L32.5917 36.4902ZM44.134 22.5979L44.1735 22.5568C46.6928 19.9553 49.8682 18.1694 53.6406 17.2272C52.6983 20.9962 50.9124 24.1733 48.3109 26.6926C48.2961 26.7057 48.283 26.7205 48.2698 26.7337C45.7505 29.3336 42.58 31.1194 38.7978 32.0617C39.7467 28.2926 41.5325 25.1139 44.134 22.5963V22.5979ZM30.9357 19.4965C30.8798 15.8787 31.8615 12.3662 33.8628 9.03617C35.8641 12.3662 36.8459 15.8754 36.7883 19.4948V19.5524C36.8475 23.1702 35.8641 26.6794 33.8628 30.0111C31.8615 26.6811 30.8815 23.1702 30.9357 19.5524V19.4965ZM14.0867 17.2272C17.8575 18.1678 21.0329 19.9536 23.5505 22.5568L23.5933 22.5979C26.1931 25.1156 27.9807 28.291 28.9196 32.0633C25.1522 31.1211 21.9751 29.3352 19.4559 26.732C19.4414 26.7192 19.4276 26.7054 19.4147 26.6909C16.8132 24.1716 15.0274 20.9962 14.0867 17.2255V17.2272ZM16.4136 39.9205H16.3544C16.2536 39.9205 16.1533 39.9205 16.0535 39.9205C12.541 39.9205 9.13367 38.9338 5.89412 36.9917C9.13367 35.0464 12.5393 34.063 16.0502 34.063C16.1522 34.063 16.2541 34.063 16.3544 34.063H16.4136C16.5156 34.063 16.6175 34.063 16.7179 34.063C20.2287 34.063 23.636 35.0496 26.8739 36.9917C23.6344 38.9371 20.2271 39.9205 16.7162 39.9205C16.6143 39.932 16.5139 39.9304 16.4136 39.9271V39.9205ZM23.5933 51.402L23.5505 51.4431C21.0329 54.043 17.8575 55.8288 14.0867 56.7728C15.0257 53.0037 16.8132 49.8266 19.4147 47.3057L19.4575 47.2646C21.9751 44.6647 25.1506 42.8788 28.9213 41.9366C27.9807 45.7139 26.1931 48.8893 23.5933 51.4086V51.402ZM36.7883 54.5034C36.8475 58.1212 35.8641 61.6321 33.8628 64.9637C31.8615 61.6321 30.8815 58.1245 30.9357 54.5034V54.4459C30.8798 50.8281 31.8615 47.3156 33.8628 43.9839C35.8641 47.3156 36.8459 50.8248 36.7883 54.4459V54.5034ZM53.6389 56.7728C49.8699 55.8305 46.6944 54.0446 44.1735 51.4448L44.134 51.402C41.5325 48.8827 39.7467 45.7073 38.8044 41.9366C42.5735 42.8772 45.7505 44.6631 48.2682 47.2646L48.3109 47.3057C50.9108 49.8332 52.6967 53.007 53.6389 56.7793V56.7728ZM51.6656 39.9254H51.363H51.3038C51.204 39.9254 51.1037 39.9254 51.0029 39.9254C47.4903 39.9254 44.0847 38.9388 40.8468 36.9967C44.0847 35.0513 47.4887 34.0679 51.0012 34.0679C51.1032 34.0679 51.2035 34.0679 51.3038 34.0679H51.3647C51.4666 34.0679 51.5669 34.0679 51.6689 34.0679C55.1798 34.0679 58.5871 35.0546 61.825 36.9967C58.592 38.947 55.1863 39.932 51.6722 39.932L51.6656 39.9254Z" fill="#A3B18A"/>
<path d="M51.3417 39.4075C52.6695 39.4075 53.7459 38.3311 53.7459 37.0033C53.7459 35.6755 52.6695 34.5991 51.3417 34.5991C50.0139 34.5991 48.9375 35.6755 48.9375 37.0033C48.9375 38.3311 50.0139 39.4075 51.3417 39.4075Z" fill="#A3B18A"/>
<path d="M16.3856 39.4075C17.7134 39.4075 18.7898 38.3311 18.7898 37.0033C18.7898 35.6755 17.7134 34.5991 16.3856 34.5991C15.0578 34.5991 13.9814 35.6755 13.9814 37.0033C13.9814 38.3311 15.0578 39.4075 16.3856 39.4075Z" fill="#A3B18A"/>
<path d="M33.8629 56.8846C35.1907 56.8846 36.2671 55.8083 36.2671 54.4805C36.2671 53.1527 35.1907 52.0763 33.8629 52.0763C32.5351 52.0763 31.4587 53.1527 31.4587 54.4805C31.4587 55.8083 32.5351 56.8846 33.8629 56.8846Z" fill="#A3B18A"/>
<path d="M33.8629 21.9287C35.1907 21.9287 36.2671 20.8523 36.2671 19.5245C36.2671 18.1967 35.1907 17.1204 33.8629 17.1204C32.5351 17.1204 31.4587 18.1967 31.4587 19.5245C31.4587 20.8523 32.5351 21.9287 33.8629 21.9287Z" fill="#A3B18A"/>
<path d="M46.2225 51.7638C47.5503 51.7638 48.6267 50.6874 48.6267 49.3596C48.6267 48.0318 47.5503 46.9554 46.2225 46.9554C44.8947 46.9554 43.8184 48.0318 43.8184 49.3596C43.8184 50.6874 44.8947 51.7638 46.2225 51.7638Z" fill="#A3B18A"/>
<path d="M21.5033 27.0479C22.8311 27.0479 23.9075 25.9715 23.9075 24.6437C23.9075 23.3159 22.8311 22.2395 21.5033 22.2395C20.1755 22.2395 19.0991 23.3159 19.0991 24.6437C19.0991 25.9715 20.1755 27.0479 21.5033 27.0479Z" fill="#A3B18A"/>
<path d="M21.5033 51.7638C22.8311 51.7638 23.9075 50.6874 23.9075 49.3596C23.9075 48.0318 22.8311 46.9554 21.5033 46.9554C20.1755 46.9554 19.0991 48.0318 19.0991 49.3596C19.0991 50.6874 20.1755 51.7638 21.5033 51.7638Z" fill="#A3B18A"/>
<path d="M46.2225 27.0479C47.5503 27.0479 48.6267 25.9715 48.6267 24.6437C48.6267 23.3159 47.5503 22.2395 46.2225 22.2395C44.8947 22.2395 43.8184 23.3159 43.8184 24.6437C43.8184 25.9715 44.8947 27.0479 46.2225 27.0479Z" fill="#A3B18A"/>
<path d="M107.766 40.6506V25.9131L108.062 27.9818L96.1116 11.0901H104.261L113.383 24.1815L109.667 24.0549L117.896 11.0901H125.789L114.353 28.4456L114.987 25.5744V40.6506H107.766Z" fill="#A3B18A"/>
<path d="M141.212 41.0733C139.102 41.1003 137.006 40.7126 135.045 39.932C133.228 39.2001 131.577 38.1083 130.193 36.7221C128.808 35.336 127.718 33.6842 126.988 31.866C125.466 27.9258 125.466 23.5601 126.988 19.6198C127.719 17.8035 128.81 16.1537 130.195 14.7691C131.579 13.3845 133.229 12.2937 135.045 11.5621C138.986 10.0426 143.351 10.0426 147.292 11.5621C149.109 12.2966 150.761 13.3881 152.149 14.772C153.532 16.1565 154.616 17.809 155.336 19.6281C156.829 23.5668 156.829 27.9158 155.336 31.8545C154.62 33.6817 153.535 35.3419 152.149 36.7319C150.762 38.1164 149.11 39.2075 147.292 39.9402C145.359 40.7128 143.293 41.0978 141.212 41.0733ZM141.169 34.3162C142.265 34.3283 143.35 34.1127 144.358 33.6831C145.319 33.2671 146.182 32.6549 146.892 31.8857C147.619 31.095 148.186 30.17 148.559 29.1625C149.347 26.9502 149.347 24.534 148.559 22.3217C148.185 21.3144 147.619 20.3895 146.892 19.5985C146.182 18.8299 145.318 18.2183 144.358 17.8027C142.316 16.9585 140.023 16.9585 137.981 17.8027C137.016 18.2212 136.146 18.8322 135.425 19.5985C134.688 20.3818 134.12 21.3089 133.758 22.3217C133.368 23.4194 133.175 24.5773 133.187 25.7421C133.176 26.9138 133.369 28.0784 133.758 29.1839C134.114 30.2 134.682 31.1284 135.425 31.9071C136.166 32.6816 137.058 33.2951 138.046 33.7093C139.035 34.1236 140.098 34.3296 141.169 34.3146V34.3162Z" fill="#A3B18A"/>
<path d="M175.755 41.0733C173.39 41.0733 171.252 40.6929 169.342 39.9321C167.494 39.2138 165.815 38.1216 164.409 36.7238C163.024 35.3367 161.946 33.6753 161.242 31.8464C160.495 29.8993 160.122 27.829 160.143 25.7438C160.12 23.6665 160.515 21.6057 161.304 19.684C162.064 17.8614 163.193 16.2154 164.619 14.8494C166.087 13.4494 167.82 12.3579 169.717 11.6394C171.76 10.8639 173.929 10.4774 176.114 10.4998C177.669 10.4923 179.218 10.7054 180.713 11.1329C182.102 11.5282 183.429 12.1107 184.66 12.8645C185.785 13.5482 186.796 14.4026 187.658 15.397L183.308 20.0014C182.648 19.3604 181.919 18.7941 181.134 18.3126C180.384 17.8614 179.583 17.4999 178.748 17.2355C177.873 16.964 176.961 16.8287 176.045 16.8342C174.336 16.8174 172.664 17.3246 171.253 18.2876C169.841 19.2505 168.759 20.6229 168.151 22.2198C167.722 23.345 167.507 24.541 167.518 25.7455C167.509 26.9607 167.738 28.166 168.194 29.2925C168.85 30.9133 169.977 32.2994 171.431 33.271C172.884 34.2426 174.596 34.7546 176.344 34.7406C177.185 34.7451 178.02 34.6021 178.811 34.318C179.542 34.061 180.222 33.675 180.817 33.1784C181.376 32.7034 181.836 32.1221 182.169 31.4681C182.506 30.8064 182.68 30.0732 182.675 29.3304V28.2352L183.604 29.6708H175.454V24.055H189.347C189.414 24.4741 189.457 24.897 189.473 25.3212C189.502 25.8562 189.523 26.3769 189.538 26.8834C189.551 27.3899 189.559 27.7714 189.559 28.0247C189.581 29.8313 189.229 31.623 188.525 33.2869C187.856 34.8433 186.871 36.2435 185.632 37.398C184.359 38.577 182.869 39.4974 181.245 40.108C179.49 40.7654 177.629 41.0926 175.755 41.0733Z" fill="#A3B18A"/>
<path d="M194.033 40.6506V34.6122H199.016V17.1285H194.033V11.0901H211.221V17.1285H206.202V34.6122H211.228V40.6506H194.033Z" fill="#A3B18A"/>
<path d="M101.999 63.6301V56.6416L102.139 57.6228L96.4722 49.613H98.3745L103.02 56.2611L102.6 56.2211L106.865 49.613H108.667L103.24 57.843L103.541 56.4814V63.6301H101.999Z" fill="#A3B18A"/>
<path d="M113.502 63.8303C112.461 63.8303 111.533 63.5967 110.719 63.1295C109.918 62.6622 109.284 62.0148 108.816 61.1871C108.362 60.3594 108.135 59.4183 108.135 58.3637C108.135 57.3224 108.362 56.3946 108.816 55.5803C109.284 54.766 109.918 54.1252 110.719 53.6579C111.533 53.1907 112.461 52.9571 113.502 52.9571C114.53 52.9571 115.444 53.1907 116.245 53.6579C117.06 54.1252 117.694 54.766 118.148 55.5803C118.615 56.3946 118.848 57.3224 118.848 58.3637C118.848 59.4183 118.615 60.3594 118.148 61.1871C117.694 62.0148 117.06 62.6622 116.245 63.1295C115.444 63.5967 114.53 63.8303 113.502 63.8303ZM113.502 62.4086C114.236 62.4086 114.89 62.2351 115.464 61.888C116.038 61.5275 116.486 61.0469 116.806 60.4462C117.126 59.8321 117.287 59.1379 117.287 58.3637C117.287 57.5894 117.126 56.9019 116.806 56.3012C116.486 55.7004 116.038 55.2332 115.464 54.8994C114.89 54.5524 114.236 54.3788 113.502 54.3788C112.768 54.3788 112.107 54.5524 111.52 54.8994C110.946 55.2332 110.492 55.7071 110.158 56.3212C109.838 56.9219 109.684 57.6027 109.697 58.3637C109.684 59.1379 109.838 59.8321 110.158 60.4462C110.492 61.0469 110.946 61.5275 111.52 61.888C112.107 62.2351 112.768 62.4086 113.502 62.4086Z" fill="#A3B18A"/>
<path d="M125.545 68.2357C124.771 68.2357 124.037 68.1156 123.342 67.8753C122.648 67.635 122.074 67.3346 121.62 66.9742L122.221 65.7126C122.488 65.9262 122.795 66.1131 123.142 66.2733C123.503 66.4469 123.89 66.5803 124.304 66.6738C124.717 66.7806 125.138 66.834 125.565 66.834C126.339 66.834 126.994 66.6871 127.528 66.3935C128.075 66.1131 128.489 65.6926 128.769 65.1319C129.063 64.5712 129.21 63.8771 129.21 63.0494V61.0469L129.45 60.9869C129.33 61.4942 129.069 61.9681 128.669 62.4086C128.268 62.8358 127.781 63.1829 127.207 63.4499C126.633 63.7035 126.026 63.8303 125.385 63.8303C124.41 63.8303 123.536 63.5967 122.762 63.1295C122.001 62.6622 121.4 62.0215 120.96 61.2071C120.519 60.3795 120.299 59.445 120.299 58.4037C120.299 57.3491 120.519 56.4146 120.96 55.6003C121.413 54.7726 122.021 54.1252 122.782 53.6579C123.543 53.1907 124.397 52.9571 125.345 52.9571C125.759 52.9571 126.159 53.0105 126.546 53.1173C126.933 53.2107 127.287 53.3509 127.608 53.5378C127.941 53.7247 128.242 53.9383 128.509 54.1786C128.776 54.4189 128.996 54.6792 129.17 54.9595C129.356 55.2399 129.49 55.5269 129.57 55.8206L129.149 55.7605L129.21 53.1774H130.711V62.9893C130.711 63.8303 130.591 64.5712 130.351 65.212C130.111 65.8661 129.757 66.4135 129.29 66.854C128.836 67.3079 128.288 67.6483 127.648 67.8753C127.02 68.1156 126.319 68.2357 125.545 68.2357ZM125.565 62.3886C126.273 62.3886 126.9 62.2217 127.447 61.888C128.008 61.5409 128.449 61.067 128.769 60.4662C129.089 59.8655 129.25 59.1713 129.25 58.3837C129.25 57.6094 129.089 56.9219 128.769 56.3212C128.462 55.7204 128.028 55.2465 127.467 54.8994C126.907 54.5524 126.273 54.3788 125.565 54.3788C124.844 54.3788 124.203 54.5524 123.643 54.8994C123.095 55.2465 122.662 55.7204 122.341 56.3212C122.021 56.9219 121.861 57.6094 121.861 58.3837C121.861 59.1446 122.014 59.8321 122.321 60.4462C122.642 61.0469 123.075 61.5209 123.623 61.8679C124.183 62.215 124.831 62.3886 125.565 62.3886Z" fill="#A3B18A"/>
<path d="M137.718 63.8303C136.81 63.8303 135.989 63.5967 135.255 63.1295C134.521 62.6489 133.94 62.0014 133.513 61.1871C133.086 60.3594 132.872 59.425 132.872 58.3837C132.872 57.3291 133.092 56.3946 133.533 55.5803C133.973 54.766 134.561 54.1252 135.295 53.6579C136.043 53.1907 136.877 52.9571 137.798 52.9571C138.345 52.9571 138.853 53.0372 139.32 53.1974C139.787 53.3576 140.201 53.5845 140.562 53.8782C140.935 54.1585 141.242 54.4923 141.483 54.8794C141.736 55.2532 141.91 55.6604 142.003 56.1009L141.563 55.8806L141.623 53.1774H143.125V63.6301H141.603V61.067L142.003 60.8066C141.91 61.2071 141.73 61.5943 141.463 61.9681C141.196 62.3285 140.869 62.6489 140.481 62.9292C140.108 63.2096 139.68 63.4298 139.2 63.59C138.733 63.7502 138.239 63.8303 137.718 63.8303ZM138.058 62.3886C138.753 62.3886 139.373 62.2217 139.921 61.888C140.468 61.5409 140.895 61.067 141.202 60.4662C141.523 59.8521 141.683 59.158 141.683 58.3837C141.683 57.6094 141.523 56.9219 141.202 56.3212C140.895 55.7204 140.468 55.2465 139.921 54.8994C139.373 54.5524 138.753 54.3788 138.058 54.3788C137.351 54.3788 136.724 54.5524 136.176 54.8994C135.642 55.2465 135.215 55.7204 134.895 56.3212C134.588 56.9219 134.434 57.6094 134.434 58.3837C134.434 59.1446 134.588 59.8321 134.895 60.4462C135.202 61.0469 135.629 61.5209 136.176 61.8679C136.724 62.215 137.351 62.3886 138.058 62.3886Z" fill="#A3B18A"/>
<path d="M156.349 63.8303C155.641 63.8303 154.974 63.7302 154.346 63.53C153.719 63.3297 153.145 63.0294 152.624 62.6289C152.103 62.2284 151.643 61.7344 151.242 61.1471L152.324 59.9456C152.951 60.84 153.592 61.4675 154.246 61.8279C154.913 62.1883 155.661 62.3686 156.489 62.3686C157.089 62.3686 157.637 62.2684 158.131 62.0682C158.625 61.8679 159.012 61.5876 159.292 61.2272C159.572 60.8667 159.713 60.4529 159.713 59.9856C159.713 59.6786 159.659 59.4049 159.552 59.1646C159.459 58.9244 159.312 58.7108 159.112 58.5239C158.912 58.337 158.665 58.1701 158.371 58.0233C158.077 57.8764 157.737 57.7429 157.35 57.6228C156.976 57.5026 156.555 57.3825 156.088 57.2623C155.407 57.1021 154.807 56.9152 154.286 56.7016C153.779 56.4747 153.345 56.201 152.984 55.8806C152.637 55.5603 152.37 55.1931 152.183 54.7793C152.01 54.3521 151.923 53.8515 151.923 53.2775C151.923 52.7301 152.037 52.2229 152.264 51.7556C152.504 51.2884 152.831 50.8879 153.245 50.5542C153.659 50.2071 154.146 49.9401 154.707 49.7532C155.267 49.5663 155.868 49.4728 156.509 49.4728C157.23 49.4728 157.87 49.573 158.431 49.7732C159.005 49.9601 159.512 50.2404 159.953 50.6142C160.394 50.988 160.774 51.4352 161.094 51.9559L159.993 53.0372C159.713 52.5966 159.392 52.2162 159.032 51.8958C158.685 51.5754 158.298 51.3351 157.87 51.1749C157.457 51.0014 156.996 50.9146 156.489 50.9146C155.901 50.9146 155.381 51.0147 154.927 51.215C154.486 51.4152 154.139 51.6955 153.886 52.056C153.632 52.4031 153.505 52.8036 153.505 53.2574C153.505 53.5912 153.565 53.8916 153.685 54.1585C153.805 54.4122 153.992 54.6391 154.246 54.8394C154.513 55.0263 154.853 55.1998 155.267 55.36C155.694 55.5069 156.202 55.647 156.789 55.7805C157.483 55.9407 158.104 56.1343 158.651 56.3612C159.212 56.5882 159.686 56.8618 160.073 57.1822C160.474 57.4893 160.774 57.8497 160.974 58.2635C161.188 58.6774 161.295 59.1513 161.295 59.6853C161.295 60.513 161.088 61.2405 160.674 61.8679C160.26 62.482 159.679 62.9626 158.932 63.3097C158.197 63.6568 157.336 63.8303 156.349 63.8303Z" fill="#A3B18A"/>
<path d="M165.287 63.6301V50.434H166.789V63.6301H165.287ZM162.925 54.6191V53.1774H169.432V54.6191H162.925Z" fill="#A3B18A"/>
<path d="M174.981 63.8303C174.18 63.8303 173.499 63.6701 172.939 63.3497C172.391 63.016 171.971 62.5354 171.677 61.908C171.397 61.2806 171.257 60.4996 171.257 59.5651V53.1774H172.778V59.2648C172.778 59.9723 172.872 60.5664 173.059 61.0469C173.259 61.5142 173.553 61.8679 173.94 62.1082C174.34 62.3485 174.828 62.4687 175.402 62.4687C175.842 62.4687 176.249 62.3952 176.623 62.2484C176.997 62.0882 177.324 61.8746 177.604 61.6076C177.885 61.3406 178.105 61.0269 178.265 60.6665C178.425 60.306 178.505 59.9256 178.505 59.5251V53.1774H180.007V63.6301H178.525L178.465 61.4274L178.706 61.3073C178.545 61.7745 178.278 62.2017 177.905 62.5888C177.531 62.9626 177.084 63.263 176.563 63.4899C176.056 63.7169 175.528 63.8303 174.981 63.8303Z" fill="#A3B18A"/>
<path d="M187.177 63.8303C186.229 63.8303 185.374 63.5967 184.613 63.1295C183.866 62.6622 183.272 62.0215 182.831 61.2071C182.404 60.3795 182.191 59.445 182.191 58.4037C182.191 57.3491 182.411 56.4146 182.851 55.6003C183.292 54.7726 183.886 54.1252 184.634 53.6579C185.381 53.1907 186.222 52.9571 187.157 52.9571C187.677 52.9571 188.178 53.0372 188.658 53.1974C189.152 53.3576 189.593 53.5845 189.98 53.8782C190.367 54.1585 190.688 54.4856 190.941 54.8594C191.195 55.2198 191.348 55.6003 191.402 56.0008L190.941 55.8406V48.812H192.443V63.6301H190.961L190.921 61.0269L191.302 60.8867C191.248 61.2605 191.095 61.6276 190.841 61.9881C190.601 62.3352 190.294 62.6489 189.92 62.9292C189.546 63.2096 189.119 63.4298 188.638 63.59C188.171 63.7502 187.684 63.8303 187.177 63.8303ZM187.397 62.4486C188.091 62.4486 188.712 62.2751 189.259 61.928C189.806 61.5809 190.234 61.1003 190.541 60.4863C190.861 59.8722 191.021 59.1713 191.021 58.3837C191.021 57.5961 190.861 56.9019 190.541 56.3012C190.234 55.6871 189.806 55.2065 189.259 54.8594C188.712 54.499 188.091 54.3187 187.397 54.3187C186.676 54.3187 186.042 54.499 185.495 54.8594C184.961 55.2065 184.533 55.6871 184.213 56.3012C183.906 56.9019 183.752 57.5961 183.752 58.3837C183.752 59.158 183.906 59.8521 184.213 60.4662C184.52 61.0803 184.947 61.5676 185.495 61.928C186.042 62.2751 186.676 62.4486 187.397 62.4486Z" fill="#A3B18A"/>
<path d="M195.769 63.6301V53.1774H197.271V63.6301H195.769ZM196.51 50.9146C196.136 50.9146 195.849 50.8211 195.649 50.6343C195.462 50.434 195.368 50.167 195.368 49.8333C195.368 49.4995 195.469 49.2325 195.669 49.0323C195.869 48.8321 196.149 48.7319 196.51 48.7319C196.87 48.7319 197.151 48.8321 197.351 49.0323C197.551 49.2192 197.651 49.4862 197.651 49.8333C197.651 50.1537 197.551 50.414 197.351 50.6142C197.151 50.8145 196.87 50.9146 196.51 50.9146Z" fill="#A3B18A"/>
<path d="M205.176 63.8303C204.135 63.8303 203.207 63.5967 202.393 63.1295C201.592 62.6622 200.958 62.0148 200.49 61.1871C200.037 60.3594 199.81 59.4183 199.81 58.3637C199.81 57.3224 200.037 56.3946 200.49 55.5803C200.958 54.766 201.592 54.1252 202.393 53.6579C203.207 53.1907 204.135 52.9571 205.176 52.9571C206.204 52.9571 207.119 53.1907 207.92 53.6579C208.734 54.1252 209.368 54.766 209.822 55.5803C210.289 56.3946 210.523 57.3224 210.523 58.3637C210.523 59.4183 210.289 60.3594 209.822 61.1871C209.368 62.0148 208.734 62.6622 207.92 63.1295C207.119 63.5967 206.204 63.8303 205.176 63.8303ZM205.176 62.4086C205.91 62.4086 206.565 62.2351 207.139 61.888C207.713 61.5275 208.16 61.0469 208.48 60.4462C208.801 59.8321 208.961 59.1379 208.961 58.3637C208.961 57.5894 208.801 56.9019 208.48 56.3012C208.16 55.7004 207.713 55.2332 207.139 54.8994C206.565 54.5524 205.91 54.3788 205.176 54.3788C204.442 54.3788 203.781 54.5524 203.194 54.8994C202.62 55.2332 202.166 55.7071 201.832 56.3212C201.512 56.9219 201.358 57.6027 201.372 58.3637C201.358 59.1379 201.512 59.8321 201.832 60.4462C202.166 61.0469 202.62 61.5275 203.194 61.888C203.781 62.2351 204.442 62.4086 205.176 62.4086Z" fill="#A3B18A"/>
</svg>
