<svg width="94" height="34" viewBox="0 0 94 34" fill="none" xmlns="http://www.w3.org/2000/svg">
<path d="M36.93 0.330521V32.7216C36.93 32.9045 36.6994 33.0521 36.4159 33.0521H35.9341C35.6498 33.0521 35.4199 32.9052 35.4199 32.7216V0.330521C35.4199 0.147633 35.6498 0 35.9341 0H36.4137C36.6994 0 36.93 0.147633 36.93 0.330521Z" fill="#A3B18A"/>
<path d="M29.2266 15.8723C27.2061 14.3504 25.0217 13.5807 22.7352 13.5807H22.4377C22.2365 13.5807 22.0374 13.5939 21.8391 13.6057C22.025 13.4404 22.2064 13.2715 22.3841 13.0915C24.0632 11.4602 25.1017 9.33533 25.4587 6.77489C25.4766 6.64909 25.465 6.52085 25.4248 6.40031C25.3846 6.27977 25.3169 6.17025 25.227 6.0804C25.1372 5.99054 25.0276 5.92283 24.9071 5.88262C24.7866 5.84241 24.6583 5.83079 24.5325 5.8487C21.9735 6.21007 19.8487 7.24424 18.2159 8.92475C18.0367 9.09883 17.8685 9.28098 17.7017 9.46681C17.7164 9.21928 17.7267 8.97102 17.723 8.7213C17.7576 6.37974 16.9885 4.14615 15.4314 2.08002C15.355 1.97858 15.2561 1.89628 15.1425 1.8396C15.0289 1.78292 14.9036 1.75342 14.7766 1.75342C14.6496 1.75342 14.5244 1.78292 14.4108 1.8396C14.2971 1.89628 14.1982 1.97858 14.1218 2.08002C12.5676 4.14542 11.7972 6.37974 11.8309 8.7213C11.8273 8.97102 11.8376 9.21855 11.8515 9.46681C11.6877 9.28172 11.5188 9.09956 11.3374 8.92475C9.7068 7.24497 7.58265 6.20713 5.02074 5.8487C4.89497 5.83095 4.76679 5.84267 4.64633 5.88294C4.52586 5.92321 4.4164 5.99093 4.32659 6.08074C4.23677 6.17056 4.16906 6.28002 4.12879 6.40048C4.08852 6.52095 4.0768 6.64912 4.09455 6.77489C4.45592 9.3346 5.49008 11.4595 7.16987 13.0915C7.34467 13.2722 7.5283 13.4411 7.71486 13.6057C7.51581 13.5947 7.31603 13.5807 7.11551 13.5807H6.81657C4.53084 13.5807 2.34646 14.3512 0.326606 15.873C0.225167 15.9494 0.142861 16.0483 0.086182 16.162C0.0295028 16.2756 0 16.4009 0 16.5278C0 16.6548 0.0295028 16.7801 0.086182 16.8937C0.142861 17.0073 0.225167 17.1063 0.326606 17.1826C2.34719 18.7038 4.53084 19.4743 6.81804 19.4743H6.96494C7.01489 19.4743 7.06924 19.4743 7.11184 19.4743C7.31382 19.4743 7.51287 19.4603 7.71339 19.4493C7.52683 19.6145 7.34614 19.7842 7.1684 19.9634C5.48788 21.594 4.45078 23.7196 4.09234 26.2801C4.07623 26.3959 4.08505 26.5138 4.1182 26.626C4.15134 26.7381 4.20806 26.8419 4.28455 26.9303C4.36105 27.0188 4.45555 27.0899 4.56174 27.1388C4.66792 27.1878 4.78335 27.2136 4.90029 27.2143C4.93889 27.2143 4.97744 27.2113 5.0156 27.2055C7.5753 26.8449 9.70019 25.81 11.3322 24.1309C11.5122 23.9569 11.6804 23.7732 11.8464 23.5881C11.8317 23.8364 11.8214 24.0839 11.8251 24.3344C11.7913 26.6752 12.5596 28.9088 14.1167 30.9749C14.1929 31.0766 14.2917 31.1592 14.4054 31.216C14.5191 31.2729 14.6444 31.3025 14.7715 31.3025C14.8986 31.3025 15.0239 31.2729 15.1376 31.216C15.2512 31.1592 15.3501 31.0766 15.4263 30.9749C16.9805 28.9088 17.7517 26.6752 17.7179 24.3344C17.7216 24.0847 17.7113 23.8364 17.6959 23.5889C17.8611 23.774 18.0286 23.9561 18.21 24.1309C19.8406 25.81 21.9655 26.8441 24.5266 27.2055C24.5648 27.2114 24.6033 27.2143 24.642 27.2143C24.759 27.2138 24.8745 27.1882 24.9808 27.1393C25.0871 27.0904 25.1817 27.0193 25.2583 26.9308C25.3348 26.8423 25.3915 26.7384 25.4246 26.6262C25.4576 26.5139 25.4663 26.3959 25.4499 26.2801C25.09 23.7196 24.0544 21.5947 22.3746 19.9634C22.1998 19.7827 22.0154 19.6131 21.8296 19.4493C22.0294 19.4603 22.2284 19.4743 22.4297 19.4743H22.7235C25.0099 19.4743 27.195 18.7038 29.2156 17.1826C29.3173 17.1064 29.3999 17.0076 29.4568 16.8939C29.5136 16.7803 29.5432 16.6549 29.5432 16.5278C29.5432 16.4008 29.5136 16.2754 29.4568 16.1618C29.3999 16.0481 29.3173 15.9492 29.2156 15.873L29.2266 15.8723ZM14.2122 16.2983L14.7799 15.7313L15.347 16.2983L14.7807 16.8653L14.2122 16.2983ZM19.3676 10.0933L19.3852 10.075C20.5104 8.913 21.9287 8.11534 23.6137 7.69448C23.1928 9.37793 22.3951 10.797 21.2332 11.9222C21.2266 11.9281 21.2207 11.9347 21.2148 11.9406C20.0896 13.1018 18.6735 13.8995 16.9841 14.3203C17.4079 12.6369 18.2056 11.2171 19.3676 10.0926V10.0933ZM13.4725 8.70808C13.4476 7.0922 13.8861 5.52332 14.7799 4.03598C15.6738 5.52332 16.1123 7.09073 16.0866 8.70734V8.73305C16.113 10.3489 15.6738 11.9163 14.7799 13.4044C13.8861 11.9171 13.4483 10.3489 13.4725 8.73305V8.70808ZM5.94694 7.69448C7.63112 8.11461 9.04943 8.91227 10.1739 10.075L10.193 10.0933C11.3543 11.2178 12.1527 12.6361 12.5721 14.3211C10.8893 13.9002 9.47029 13.1025 8.34505 11.9398C8.33858 11.9341 8.33244 11.928 8.32669 11.9215C7.16472 10.7962 6.36706 9.37793 5.94694 7.69374V7.69448ZM6.98624 17.8305H6.9598C6.91475 17.8305 6.86995 17.8305 6.82539 17.8305C5.25651 17.8305 3.73465 17.3898 2.2877 16.5223C3.73465 15.6534 5.25578 15.2142 6.82392 15.2142C6.86946 15.2142 6.915 15.2142 6.9598 15.2142H6.98624C7.03178 15.2142 7.07732 15.2142 7.12212 15.2142C8.69026 15.2142 10.2121 15.6549 11.6583 16.5223C10.2114 17.3912 8.68953 17.8305 7.12139 17.8305C7.07585 17.8356 7.03105 17.8349 6.98624 17.8334V17.8305ZM10.193 22.9587L10.1739 22.977C9.04943 24.1383 7.63112 24.9359 5.94694 25.3575C6.36633 23.6741 7.16472 22.255 8.32669 21.1291L8.34579 21.1107C9.47029 19.9495 10.8886 19.1518 12.5728 18.7309C12.1527 20.4181 11.3543 21.8364 10.193 22.9616V22.9587ZM16.0866 24.3439C16.113 25.9598 15.6738 27.528 14.7799 29.016C13.8861 27.528 13.4483 25.9613 13.4725 24.3439V24.3182C13.4476 22.7023 13.8861 21.1335 14.7799 19.6454C15.6738 21.1335 16.1123 22.7009 16.0866 24.3182V24.3439ZM23.6129 25.3575C21.9295 24.9367 20.5112 24.139 19.3852 22.9778L19.3676 22.9587C18.2056 21.8334 17.4079 20.4151 16.9871 18.7309C18.6705 19.1511 20.0896 19.9487 21.2141 21.1107L21.2332 21.1291C22.3944 22.258 23.1921 23.6755 23.6129 25.3605V25.3575ZM22.7315 17.8327H22.5964H22.57C22.5254 17.8327 22.4806 17.8327 22.4355 17.8327C20.8667 17.8327 19.3455 17.392 17.8993 16.5245C19.3455 15.6556 20.8659 15.2164 22.4348 15.2164C22.4803 15.2164 22.5251 15.2164 22.57 15.2164H22.5971C22.6427 15.2164 22.6875 15.2164 22.733 15.2164C24.3011 15.2164 25.823 15.6571 27.2692 16.5245C25.8252 17.3956 24.3041 17.8356 22.7345 17.8356L22.7315 17.8327Z" fill="#A3B18A"/>
<path d="M22.587 17.6013C23.1801 17.6013 23.6608 17.1205 23.6608 16.5274C23.6608 15.9344 23.1801 15.4536 22.587 15.4536C21.994 15.4536 21.5132 15.9344 21.5132 16.5274C21.5132 17.1205 21.994 17.6013 22.587 17.6013Z" fill="#A3B18A"/>
<path d="M6.97373 17.6013C7.56679 17.6013 8.04756 17.1205 8.04756 16.5274C8.04756 15.9344 7.56679 15.4536 6.97373 15.4536C6.38067 15.4536 5.8999 15.9344 5.8999 16.5274C5.8999 17.1205 6.38067 17.6013 6.97373 17.6013Z" fill="#A3B18A"/>
<path d="M14.7799 25.4074C15.3729 25.4074 15.8537 24.9267 15.8537 24.3336C15.8537 23.7405 15.3729 23.2598 14.7799 23.2598C14.1868 23.2598 13.7061 23.7405 13.7061 24.3336C13.7061 24.9267 14.1868 25.4074 14.7799 25.4074Z" fill="#A3B18A"/>
<path d="M14.7799 9.79463C15.3729 9.79463 15.8537 9.31386 15.8537 8.7208C15.8537 8.12774 15.3729 7.64697 14.7799 7.64697C14.1868 7.64697 13.7061 8.12774 13.7061 8.7208C13.7061 9.31386 14.1868 9.79463 14.7799 9.79463Z" fill="#A3B18A"/>
<path d="M20.3004 23.1203C20.8934 23.1203 21.3742 22.6395 21.3742 22.0465C21.3742 21.4534 20.8934 20.9727 20.3004 20.9727C19.7073 20.9727 19.2266 21.4534 19.2266 22.0465C19.2266 22.6395 19.7073 23.1203 20.3004 23.1203Z" fill="#A3B18A"/>
<path d="M9.25937 12.0808C9.85243 12.0808 10.3332 11.6 10.3332 11.0069C10.3332 10.4139 9.85243 9.93311 9.25937 9.93311C8.66632 9.93311 8.18555 10.4139 8.18555 11.0069C8.18555 11.6 8.66632 12.0808 9.25937 12.0808Z" fill="#A3B18A"/>
<path d="M9.25937 23.1203C9.85243 23.1203 10.3332 22.6395 10.3332 22.0465C10.3332 21.4534 9.85243 20.9727 9.25937 20.9727C8.66632 20.9727 8.18555 21.4534 8.18555 22.0465C8.18555 22.6395 8.66632 23.1203 9.25937 23.1203Z" fill="#A3B18A"/>
<path d="M20.3004 12.0808C20.8934 12.0808 21.3742 11.6 21.3742 11.0069C21.3742 10.4139 20.8934 9.93311 20.3004 9.93311C19.7073 9.93311 19.2266 10.4139 19.2266 11.0069C19.2266 11.6 19.7073 12.0808 20.3004 12.0808Z" fill="#A3B18A"/>
<path d="M47.7888 18.1568V11.5743L47.921 12.4983L42.5835 4.95361H46.2236L50.2979 10.8009L48.6379 10.7443L52.3133 4.95361H55.8389L50.7312 12.7054L51.014 11.423V18.1568H47.7888Z" fill="#A3B18A"/>
<path d="M62.7273 18.3454C61.7847 18.3575 60.8489 18.1843 59.973 17.8357C59.1612 17.5088 58.424 17.0211 57.8055 16.402C57.187 15.7829 56.7001 15.0451 56.374 14.233C55.6943 12.4731 55.6943 10.5232 56.374 8.76327C56.7008 7.95203 57.188 7.21511 57.8064 6.59668C58.4248 5.97826 59.1618 5.49105 59.973 5.16426C61.7331 4.48561 63.6827 4.48561 65.4428 5.16426C66.2545 5.49234 66.9923 5.97985 67.6124 6.59799C68.2298 7.21638 68.7142 7.95448 69.0359 8.76694C69.7028 10.5262 69.7028 12.4687 69.0359 14.2279C68.7159 15.044 68.2313 15.7855 67.6124 16.4064C66.9927 17.0248 66.2548 17.5121 65.4428 17.8394C64.5795 18.1845 63.6569 18.3564 62.7273 18.3454ZM62.7082 15.3274C63.1974 15.3328 63.6824 15.2365 64.1324 15.0446C64.5615 14.8588 64.947 14.5854 65.2643 14.2418C65.5892 13.8886 65.8422 13.4755 66.009 13.0255C66.3606 12.0374 66.3606 10.9582 66.009 9.97004C65.842 9.52015 65.589 9.10704 65.2643 8.75372C64.947 8.41045 64.5614 8.13726 64.1324 7.95166C63.2204 7.5746 62.1961 7.5746 61.2841 7.95166C60.853 8.13855 60.4646 8.41148 60.1427 8.75372C59.8134 9.10361 59.5598 9.51769 59.3979 9.97004C59.2238 10.4604 59.1375 10.9775 59.143 11.4978C59.1381 12.0211 59.2244 12.5413 59.3979 13.0351C59.5568 13.4889 59.8107 13.9036 60.1427 14.2514C60.4734 14.5973 60.872 14.8713 61.3134 15.0564C61.7548 15.2414 62.2297 15.3334 62.7082 15.3267V15.3274Z" fill="#A3B18A"/>
<path d="M78.1563 18.3455C77.0996 18.3455 76.1448 18.1756 75.2918 17.8358C74.4665 17.515 73.7163 17.0271 73.0883 16.4028C72.47 15.7833 71.9881 15.0412 71.6737 14.2243C71.3403 13.3546 71.1739 12.4299 71.183 11.4986C71.1727 10.5708 71.349 9.65031 71.7016 8.792C72.0412 7.9779 72.5453 7.24274 73.1823 6.63259C73.8378 6.00729 74.6121 5.51977 75.4593 5.19887C76.3716 4.8525 77.3406 4.67986 78.3164 4.68986C79.0111 4.68649 79.7028 4.7817 80.3708 4.97264C80.9908 5.14918 81.5838 5.40938 82.1336 5.74606C82.6358 6.05144 83.0875 6.43304 83.4726 6.87718L81.5298 8.93376C81.2348 8.64745 80.9092 8.39449 80.5588 8.17943C80.2236 7.97794 79.8659 7.81647 79.4931 7.69834C79.1021 7.5771 78.6949 7.51665 78.2856 7.51913C77.5225 7.51162 76.7755 7.73817 76.1451 8.16826C75.5147 8.59836 75.0313 9.21133 74.76 9.92459C74.568 10.4272 74.4721 10.9613 74.4772 11.4993C74.4729 12.0421 74.5754 12.5805 74.7791 13.0836C75.0718 13.8075 75.5755 14.4267 76.2246 14.8606C76.8738 15.2946 77.6384 15.5233 78.4193 15.517C78.7947 15.519 79.1676 15.4551 79.521 15.3282C79.8477 15.2135 80.1512 15.0411 80.4171 14.8192C80.6669 14.6071 80.8721 14.3475 81.0208 14.0554C81.1716 13.7598 81.2492 13.4323 81.2471 13.1005V12.6114L81.662 13.2526H78.0219V10.7443H84.2269C84.2571 10.9315 84.276 11.1204 84.2834 11.3098C84.2962 11.5488 84.3057 11.7814 84.3121 12.0076C84.318 12.2338 84.3216 12.4042 84.3216 12.5173C84.3315 13.3243 84.1742 14.1246 83.8596 14.8677C83.5612 15.5629 83.1212 16.1883 82.5677 16.7039C81.999 17.2305 81.3335 17.6416 80.608 17.9144C79.8244 18.208 78.9931 18.3542 78.1563 18.3455Z" fill="#A3B18A"/>
<path d="M86.3203 18.1568V15.4598H88.5458V7.65067H86.3203V4.95361H93.9972V7.65067H91.7556V15.4598H94.0002V18.1568H86.3203Z" fill="#A3B18A"/>
<path d="M45.2131 28.4204V25.299L45.2758 25.7372L42.7446 22.1596H43.5943L45.6693 25.129L45.4815 25.1111L47.3865 22.1596H48.1915L45.7677 25.8356L45.9018 25.2274V28.4204H45.2131Z" fill="#A3B18A"/>
<path d="M50.351 28.5098C49.8859 28.5098 49.4715 28.4055 49.1078 28.1968C48.75 27.9881 48.4668 27.6989 48.2581 27.3292C48.0554 26.9595 47.954 26.5392 47.954 26.0681C47.954 25.603 48.0554 25.1886 48.2581 24.8249C48.4668 24.4612 48.75 24.175 49.1078 23.9663C49.4715 23.7576 49.8859 23.6533 50.351 23.6533C50.8101 23.6533 51.2186 23.7576 51.5763 23.9663C51.94 24.175 52.2233 24.4612 52.426 24.8249C52.6347 25.1886 52.739 25.603 52.739 26.0681C52.739 26.5392 52.6347 26.9595 52.426 27.3292C52.2233 27.6989 51.94 27.9881 51.5763 28.1968C51.2186 28.4055 50.8101 28.5098 50.351 28.5098ZM50.351 27.8748C50.6789 27.8748 50.9711 27.7973 51.2275 27.6423C51.4839 27.4813 51.6836 27.2666 51.8267 26.9983C51.9698 26.724 52.0414 26.414 52.0414 26.0681C52.0414 25.7223 51.9698 25.4152 51.8267 25.1469C51.6836 24.8786 51.4839 24.6699 51.2275 24.5208C50.9711 24.3658 50.6789 24.2883 50.351 24.2883C50.0231 24.2883 49.7279 24.3658 49.4656 24.5208C49.2092 24.6699 49.0064 24.8816 48.8574 25.1559C48.7143 25.4242 48.6457 25.7283 48.6517 26.0681C48.6457 26.414 48.7143 26.724 48.8574 26.9983C49.0064 27.2666 49.2092 27.4813 49.4656 27.6423C49.7279 27.7973 50.0231 27.8748 50.351 27.8748Z" fill="#A3B18A"/>
<path d="M55.7301 30.4775C55.3842 30.4775 55.0563 30.4238 54.7462 30.3165C54.4362 30.2092 54.1798 30.075 53.9771 29.914L54.2454 29.3505C54.3646 29.4459 54.5018 29.5294 54.6568 29.601C54.8178 29.6785 54.9907 29.7381 55.1755 29.7799C55.3604 29.8276 55.5482 29.8514 55.739 29.8514C56.0848 29.8514 56.377 29.7858 56.6155 29.6546C56.86 29.5294 57.0448 29.3416 57.17 29.0912C57.3012 28.8407 57.3668 28.5307 57.3668 28.161V27.2666L57.4741 27.2398C57.4205 27.4664 57.3042 27.678 57.1253 27.8748C56.9464 28.0656 56.7288 28.2206 56.4724 28.3399C56.216 28.4532 55.9447 28.5098 55.6585 28.5098C55.2232 28.5098 54.8327 28.4055 54.4869 28.1968C54.147 27.9881 53.8787 27.7019 53.6819 27.3382C53.4851 26.9685 53.3868 26.5511 53.3868 26.086C53.3868 25.615 53.4851 25.1976 53.6819 24.8339C53.8846 24.4642 54.1559 24.175 54.4958 23.9663C54.8357 23.7576 55.2173 23.6533 55.6406 23.6533C55.8255 23.6533 56.0043 23.6771 56.1773 23.7248C56.3502 23.7666 56.5082 23.8292 56.6513 23.9127C56.8003 23.9961 56.9345 24.0915 57.0538 24.1989C57.173 24.3062 57.2714 24.4225 57.3489 24.5477C57.4324 24.6729 57.492 24.8011 57.5278 24.9323L57.34 24.9054L57.3668 23.7517H58.0376V28.1342C58.0376 28.5098 57.9839 28.8407 57.8766 29.1269C57.7693 29.4191 57.6113 29.6636 57.4026 29.8603C57.1998 30.0631 56.9554 30.2151 56.6692 30.3165C56.3889 30.4238 56.0759 30.4775 55.7301 30.4775ZM55.739 27.8659C56.055 27.8659 56.3353 27.7913 56.5797 27.6423C56.8302 27.4872 57.0269 27.2756 57.17 27.0072C57.3131 26.7389 57.3847 26.4289 57.3847 26.0771C57.3847 25.7312 57.3131 25.4242 57.17 25.1559C57.0329 24.8875 56.8391 24.6759 56.5887 24.5208C56.3382 24.3658 56.055 24.2883 55.739 24.2883C55.417 24.2883 55.1308 24.3658 54.8804 24.5208C54.6359 24.6759 54.4421 24.8875 54.299 25.1559C54.1559 25.4242 54.0844 25.7312 54.0844 26.0771C54.0844 26.4169 54.153 26.724 54.2901 26.9983C54.4332 27.2666 54.627 27.4783 54.8714 27.6333C55.1219 27.7883 55.4111 27.8659 55.739 27.8659Z" fill="#A3B18A"/>
<path d="M61.1671 28.5098C60.7617 28.5098 60.395 28.4055 60.067 28.1968C59.7391 27.9821 59.4797 27.6929 59.2889 27.3292C59.0981 26.9595 59.0027 26.5422 59.0027 26.0771C59.0027 25.606 59.1011 25.1886 59.2978 24.8249C59.4946 24.4612 59.757 24.175 60.0849 23.9663C60.4188 23.7576 60.7915 23.6533 61.2029 23.6533C61.4474 23.6533 61.6739 23.6891 61.8826 23.7606C62.0913 23.8322 62.2762 23.9335 62.4372 24.0647C62.6041 24.1899 62.7412 24.339 62.8486 24.5119C62.9619 24.6788 63.0394 24.8607 63.0811 25.0575L62.8843 24.9591L62.9112 23.7517H63.582V28.4204H62.9022V27.2756L63.0811 27.1593C63.0394 27.3382 62.9589 27.5111 62.8396 27.678C62.7204 27.839 62.5743 27.9821 62.4014 28.1073C62.2344 28.2326 62.0436 28.3309 61.829 28.4025C61.6203 28.474 61.3997 28.5098 61.1671 28.5098ZM61.3192 27.8659C61.6292 27.8659 61.9065 27.7913 62.1509 27.6423C62.3954 27.4872 62.5862 27.2756 62.7234 27.0072C62.8665 26.733 62.938 26.4229 62.938 26.0771C62.938 25.7312 62.8665 25.4242 62.7234 25.1559C62.5862 24.8875 62.3954 24.6759 62.1509 24.5208C61.9065 24.3658 61.6292 24.2883 61.3192 24.2883C61.0031 24.2883 60.7229 24.3658 60.4784 24.5208C60.2399 24.6759 60.0491 24.8875 59.906 25.1559C59.7689 25.4242 59.7003 25.7312 59.7003 26.0771C59.7003 26.4169 59.7689 26.724 59.906 26.9983C60.0432 27.2666 60.234 27.4783 60.4784 27.6333C60.7229 27.7883 61.0031 27.8659 61.3192 27.8659Z" fill="#A3B18A"/>
<path d="M69.4884 28.5098C69.1724 28.5098 68.8743 28.4651 68.594 28.3757C68.3138 28.2862 68.0574 28.1521 67.8249 27.9732C67.5923 27.7943 67.3866 27.5737 67.2077 27.3113L67.6907 26.7747C67.971 27.1742 68.2572 27.4544 68.5493 27.6154C68.8475 27.7764 69.1814 27.8569 69.551 27.8569C69.8194 27.8569 70.0638 27.8122 70.2844 27.7228C70.5051 27.6333 70.678 27.5081 70.8032 27.3471C70.9284 27.1861 70.991 27.0013 70.991 26.7926C70.991 26.6554 70.9672 26.5332 70.9195 26.4259C70.8777 26.3186 70.8121 26.2232 70.7227 26.1397C70.6333 26.0562 70.523 25.9817 70.3918 25.9161C70.2606 25.8505 70.1086 25.7909 69.9356 25.7372C69.7687 25.6835 69.5809 25.6299 69.3722 25.5762C69.0681 25.5047 68.7998 25.4212 68.5672 25.3258C68.3406 25.2244 68.1469 25.1022 67.9859 24.9591C67.8308 24.816 67.7116 24.652 67.6281 24.4672C67.5506 24.2764 67.5118 24.0528 67.5118 23.7964C67.5118 23.5519 67.5625 23.3253 67.6639 23.1166C67.7712 22.908 67.9173 22.7291 68.1021 22.58C68.287 22.425 68.5046 22.3057 68.755 22.2223C69.0055 22.1388 69.2738 22.097 69.56 22.097C69.882 22.097 70.1682 22.1418 70.4186 22.2312C70.675 22.3147 70.9016 22.4399 71.0983 22.6068C71.2951 22.7738 71.465 22.9735 71.6081 23.2061L71.1162 23.6891C70.991 23.4923 70.8479 23.3224 70.6869 23.1793C70.5319 23.0361 70.359 22.9288 70.1682 22.8573C69.9833 22.7798 69.7776 22.741 69.551 22.741C69.2887 22.741 69.0562 22.7857 68.8534 22.8752C68.6567 22.9646 68.5016 23.0898 68.3883 23.2508C68.275 23.4058 68.2184 23.5847 68.2184 23.7874C68.2184 23.9365 68.2452 24.0707 68.2989 24.1899C68.3526 24.3032 68.436 24.4046 68.5493 24.494C68.6686 24.5775 68.8206 24.655 69.0055 24.7265C69.1963 24.7921 69.4229 24.8547 69.6852 24.9144C69.9953 24.9859 70.2725 25.0724 70.517 25.1737C70.7674 25.2751 70.9791 25.3973 71.152 25.5404C71.3309 25.6776 71.465 25.8386 71.5545 26.0234C71.6499 26.2083 71.6976 26.4199 71.6976 26.6584C71.6976 27.0281 71.6052 27.3531 71.4203 27.6333C71.2355 27.9076 70.9761 28.1222 70.6422 28.2773C70.3143 28.4323 69.9297 28.5098 69.4884 28.5098Z" fill="#A3B18A"/>
<path d="M73.481 28.4204V22.5263H74.1518V28.4204H73.481ZM72.4256 24.3956V23.7517H75.3324V24.3956H72.4256Z" fill="#A3B18A"/>
<path d="M77.8107 28.5098C77.4529 28.5098 77.1488 28.4383 76.8984 28.2952C76.6539 28.1461 76.4661 27.9314 76.3349 27.6512C76.2097 27.371 76.1471 27.0221 76.1471 26.6048V23.7517H76.8268V26.4706C76.8268 26.7866 76.8686 27.052 76.9521 27.2666C77.0415 27.4753 77.1727 27.6333 77.3456 27.7406C77.5245 27.848 77.7421 27.9016 77.9985 27.9016C78.1953 27.9016 78.3771 27.8688 78.5441 27.8032C78.711 27.7317 78.8571 27.6363 78.9823 27.517C79.1075 27.3978 79.2059 27.2577 79.2775 27.0967C79.349 26.9357 79.3848 26.7658 79.3848 26.5869V23.7517H80.0556V28.4204H79.3937L79.3669 27.4365L79.4742 27.3829C79.4027 27.5916 79.2834 27.7824 79.1165 27.9553C78.9495 28.1222 78.7498 28.2564 78.5172 28.3578C78.2907 28.4591 78.0551 28.5098 77.8107 28.5098Z" fill="A3B18A"/>
<path d="M83.2578 28.5098C82.8344 28.5098 82.4528 28.4055 82.113 28.1968C81.7791 27.9881 81.5137 27.7019 81.317 27.3382C81.1262 26.9685 81.0308 26.5511 81.0308 26.086C81.0308 25.615 81.1291 25.1976 81.3259 24.8339C81.5227 24.4642 81.788 24.175 82.1219 23.9663C82.4558 23.7576 82.8315 23.6533 83.2488 23.6533C83.4814 23.6533 83.705 23.6891 83.9196 23.7606C84.1403 23.8322 84.337 23.9335 84.5099 24.0647C84.6829 24.1899 84.826 24.336 84.9392 24.5029C85.0525 24.6639 85.1211 24.8339 85.145 25.0128L84.9392 24.9412V21.8019H85.61V28.4204H84.9482L84.9303 27.2577L85.1002 27.1951C85.0764 27.362 85.0078 27.526 84.8945 27.687C84.7872 27.842 84.6501 27.9821 84.4831 28.1073C84.3162 28.2326 84.1254 28.3309 83.9107 28.4025C83.702 28.474 83.4844 28.5098 83.2578 28.5098ZM83.3562 27.8927C83.6662 27.8927 83.9435 27.8152 84.188 27.6601C84.4324 27.5051 84.6232 27.2905 84.7604 27.0162C84.9035 26.7419 84.975 26.4289 84.975 26.0771C84.975 25.7253 84.9035 25.4152 84.7604 25.1469C84.6232 24.8726 84.4324 24.658 84.188 24.5029C83.9435 24.342 83.6662 24.2615 83.3562 24.2615C83.0342 24.2615 82.751 24.342 82.5065 24.5029C82.268 24.658 82.0772 24.8726 81.9341 25.1469C81.797 25.4152 81.7284 25.7253 81.7284 26.0771C81.7284 26.4229 81.797 26.733 81.9341 27.0072C82.0712 27.2815 82.262 27.4992 82.5065 27.6601C82.751 27.8152 83.0342 27.8927 83.3562 27.8927Z" fill="#A3B18A"/>
<path d="M87.0956 28.4204V23.7517H87.7664V28.4204H87.0956ZM87.4265 22.741C87.2595 22.741 87.1313 22.6993 87.0419 22.6158C86.9584 22.5263 86.9167 22.4071 86.9167 22.258C86.9167 22.109 86.9614 21.9897 87.0508 21.9003C87.1403 21.8108 87.2655 21.7661 87.4265 21.7661C87.5875 21.7661 87.7127 21.8108 87.8021 21.9003C87.8916 21.9837 87.9363 22.103 87.9363 22.258C87.9363 22.4011 87.8916 22.5174 87.8021 22.6068C87.7127 22.6963 87.5875 22.741 87.4265 22.741Z" fill="#A3B18A"/>
<path d="M91.2973 28.5098C90.8322 28.5098 90.4178 28.4055 90.0541 28.1968C89.6964 27.9881 89.4131 27.6989 89.2044 27.3292C89.0017 26.9595 88.9003 26.5392 88.9003 26.0681C88.9003 25.603 89.0017 25.1886 89.2044 24.8249C89.4131 24.4612 89.6964 24.175 90.0541 23.9663C90.4178 23.7576 90.8322 23.6533 91.2973 23.6533C91.7564 23.6533 92.1649 23.7576 92.5226 23.9663C92.8863 24.175 93.1696 24.4612 93.3723 24.8249C93.581 25.1886 93.6853 25.603 93.6853 26.0681C93.6853 26.5392 93.581 26.9595 93.3723 27.3292C93.1696 27.6989 92.8863 27.9881 92.5226 28.1968C92.1649 28.4055 91.7564 28.5098 91.2973 28.5098ZM91.2973 27.8748C91.6253 27.8748 91.9174 27.7973 92.1738 27.6423C92.4302 27.4813 92.63 27.2666 92.7731 26.9983C92.9162 26.724 92.9877 26.414 92.9877 26.0681C92.9877 25.7223 92.9162 25.4152 92.7731 25.1469C92.63 24.8786 92.4302 24.6699 92.1738 24.5208C91.9174 24.3658 91.6253 24.2883 91.2973 24.2883C90.9694 24.2883 90.6742 24.3658 90.4119 24.5208C90.1555 24.6699 89.9528 24.8816 89.8037 25.1559C89.6606 25.4242 89.592 25.7283 89.598 26.0681C89.592 26.414 89.6606 26.724 89.8037 26.9983C89.9528 27.2666 90.1555 27.4813 90.4119 27.6423C90.6742 27.7973 90.9694 27.8748 91.2973 27.8748Z" fill="#A3B18A"/>
</svg>